<?xml version="1.0" standalone="no"?>
<!DOCTYPE svg PUBLIC "-//W3C//DTD SVG 20010904//EN"
 "http://www.w3.org/TR/2001/REC-SVG-20010904/DTD/svg10.dtd">
<svg version="1.0" xmlns="http://www.w3.org/2000/svg"
 width="1024.000000pt" height="1024.000000pt" viewBox="0 0 1024.000000 1024.000000"
 preserveAspectRatio="xMidYMid meet">

<g transform="translate(0.000000,1024.000000) scale(0.100000,-0.100000)"
fill="#000000" stroke="none">
<path d="M6660 8627 c-370 -127 -609 -524 -729 -1207 -69 -398 -112 -1018
-109 -1575 l1 -290 8 380 c16 909 79 1475 210 1900 96 312 248 555 424 681
108 76 256 132 317 119 54 -12 59 -38 56 -310 -2 -134 1 -240 5 -236 4 4 7
122 5 260 l-3 253 -28 24 c-35 30 -72 30 -157 1z"/>
<path d="M3236 8405 c-16 -16 -22 -52 -31 -180 -3 -44 -27 -350 -55 -680 -27
-330 -57 -692 -66 -805 -24 -293 -10 -402 67 -550 60 -115 127 -197 277 -339
173 -164 194 -200 200 -344 3 -54 -1 -187 -7 -295 -6 -108 -18 -309 -26 -447
-8 -137 -24 -410 -35 -605 -20 -341 -40 -689 -96 -1610 -28 -473 -26 -505 33
-626 47 -98 155 -194 243 -218 14 -4 -2 7 -36 23 -121 61 -220 198 -243 338
-10 57 -6 163 24 638 19 314 42 689 50 835 21 372 52 913 65 1120 41 655 48
851 34 917 -7 36 -24 84 -38 107 -13 22 -93 108 -176 190 -293 289 -357 438
-331 782 16 202 66 815 96 1169 14 160 29 350 34 422 5 79 14 139 21 148 19
23 97 20 110 -4 13 -26 13 -266 -1 -981 -12 -617 -11 -639 36 -686 29 -29 89
-32 124 -8 55 39 50 -43 77 1309 4 187 11 351 16 365 8 22 7 23 -5 10 -13 -13
-18 -144 -31 -808 -9 -435 -21 -803 -26 -817 -27 -71 -108 -89 -153 -35 -34
40 -41 105 -33 309 3 91 9 428 12 749 7 553 6 583 -11 602 -22 25 -96 28 -119
5z"/>
<path d="M3662 8413 c25 -2 52 -10 58 -18 8 -10 16 -246 26 -817 13 -750 15
-805 33 -828 45 -62 119 -65 158 -7 20 30 22 47 27 262 3 127 8 488 12 803 6
479 9 576 21 588 19 18 97 18 112 0 8 -9 15 -137 21 -407 16 -676 30 -1112 36
-1168 5 -44 12 -61 39 -88 19 -19 43 -33 57 -32 19 0 17 2 -11 12 -19 7 -43
24 -54 39 -24 32 -28 116 -46 908 -15 646 -19 727 -38 745 -9 9 -34 15 -63 15
-40 0 -52 -4 -64 -22 -12 -19 -16 -121 -21 -568 -4 -300 -9 -556 -11 -570 -1
-14 -3 -130 -3 -258 l-1 -234 -29 -29 c-39 -39 -83 -39 -121 -1 l-28 28 -6
325 c-26 1380 -24 1303 -42 1316 -10 7 -38 12 -63 11 l-46 -2 47 -3z"/>
<path d="M4396 8402 c-15 -17 -16 -85 -16 -815 1 -872 3 -838 -58 -871 -16 -9
-21 -15 -11 -16 19 0 64 47 75 80 5 14 7 379 5 811 -3 887 -10 819 75 819 37
0 46 -4 53 -22 4 -13 13 -113 20 -223 12 -196 18 -284 82 -1070 18 -214 35
-453 39 -530 6 -131 7 -134 8 -45 1 52 -11 259 -28 460 -44 544 -88 1129 -96
1270 -8 154 -15 170 -83 170 -34 0 -53 -5 -65 -18z"/>
<path d="M6832 6610 c-2 -1727 6 -2114 77 -3565 45 -911 45 -930 32 -992 -18
-82 -77 -189 -136 -249 -69 -70 -148 -105 -255 -115 l-85 -7 85 2 c112 3 179
33 264 118 70 70 118 157 137 246 12 57 5 299 -21 812 -28 524 -51 1042 -60
1360 -5 195 -13 400 -16 455 -4 55 -10 836 -13 1735 l-7 1635 -2 -1435z"/>
<path d="M4541 7824 c0 -11 3 -14 6 -6 3 7 2 16 -1 19 -3 4 -6 -2 -5 -13z"/>
<path d="M6812 7720 c0 -14 2 -19 5 -12 2 6 2 18 0 25 -3 6 -5 1 -5 -13z"/>
<path d="M6813 7645 c0 -27 2 -38 4 -22 2 15 2 37 0 50 -2 12 -4 0 -4 -28z"/>
<path d="M4561 7594 c0 -11 3 -14 6 -6 3 7 2 16 -1 19 -3 4 -6 -2 -5 -13z"/>
<path d="M6811 7574 c0 -11 3 -14 6 -6 3 7 2 16 -1 19 -3 4 -6 -2 -5 -13z"/>
<path d="M6811 7504 c0 -11 3 -14 6 -6 3 7 2 16 -1 19 -3 4 -6 -2 -5 -13z"/>
<path d="M6812 7420 c0 -19 2 -27 5 -17 2 9 2 25 0 35 -3 9 -5 1 -5 -18z"/>
<path d="M6814 6915 c0 -115 2 -161 3 -102 2 59 2 154 0 210 -1 56 -3 8 -3
-108z"/>
<path d="M6812 6680 c0 -14 2 -19 5 -12 2 6 2 18 0 25 -3 6 -5 1 -5 -13z"/>
<path d="M6813 6615 c0 -22 2 -30 4 -17 2 12 2 30 0 40 -3 9 -5 -1 -4 -23z"/>
<path d="M4643 6520 c0 -25 2 -35 4 -22 2 12 2 32 0 45 -2 12 -4 2 -4 -23z"/>
<path d="M6814 6390 c0 -58 1 -81 3 -52 2 28 2 76 0 105 -2 28 -3 5 -3 -53z"/>
<path d="M4651 6403 c-3 -48 -62 -187 -116 -270 -42 -66 -100 -130 -226 -254
-146 -144 -173 -176 -201 -235 -33 -68 -33 -70 -33 -219 0 -135 11 -320 35
-625 l9 -105 -4 120 c-2 66 -12 240 -22 387 -27 421 -19 445 225 668 106 97
193 200 251 298 47 78 94 205 88 236 -4 20 -4 20 -6 -1z"/>
<path d="M6811 6244 c0 -11 3 -14 6 -6 3 7 2 16 -1 19 -3 4 -6 -2 -5 -13z"/>
<path d="M6812 6045 c0 -16 2 -22 5 -12 2 9 2 23 0 30 -3 6 -5 -1 -5 -18z"/>
<path d="M6814 5860 c0 -80 2 -112 3 -72 2 39 2 105 0 145 -1 39 -3 7 -3 -73z"/>
<path d="M6814 5515 c0 -93 2 -133 3 -88 2 45 2 122 0 170 -1 48 -3 12 -3 -82z"/>
<path d="M5835 5510 c13 -103 107 -254 221 -357 168 -149 195 -177 220 -230
47 -95 47 -93 -36 -1228 -11 -154 -34 -453 -50 -665 -17 -212 -37 -477 -45
-590 -8 -113 -17 -232 -19 -264 -11 -144 36 -270 138 -372 60 -60 149 -114
186 -113 8 0 -7 8 -33 19 -110 43 -211 149 -254 267 -33 91 -31 160 27 910 28
356 57 745 65 863 8 118 19 274 25 345 48 616 49 748 10 825 -36 71 -76 116
-160 180 -138 105 -245 252 -283 390 -15 54 -17 58 -12 20z"/>
<path d="M6812 5320 c0 -14 2 -19 5 -12 2 6 2 18 0 25 -3 6 -5 1 -5 -13z"/>
<path d="M4081 4874 c0 -11 3 -14 6 -6 3 7 2 16 -1 19 -3 4 -6 -2 -5 -13z"/>
<path d="M4120 4643 c0 -59 37 -678 45 -743 2 -25 14 -200 25 -390 34 -584 50
-830 60 -955 13 -147 18 -477 8 -525 -6 -27 -4 -25 8 10 19 56 19 153 -1 450
-8 124 -26 410 -40 635 -31 504 -41 674 -60 930 -8 110 -20 297 -26 415 -11
206 -19 279 -19 173z"/>
<path d="M3591 4274 c0 -11 3 -14 6 -6 3 7 2 16 -1 19 -3 4 -6 -2 -5 -13z"/>
<path d="M4142 3915 c0 -16 2 -22 5 -12 2 9 2 23 0 30 -3 6 -5 -1 -5 -18z"/>
<path d="M6863 3585 c0 -22 2 -30 4 -17 2 12 2 30 0 40 -3 9 -5 -1 -4 -23z"/>
<path d="M3512 2930 c0 -19 2 -27 5 -17 2 9 2 25 0 35 -3 9 -5 1 -5 -18z"/>
<path d="M4211 2784 c0 -11 3 -14 6 -6 3 7 2 16 -1 19 -3 4 -6 -2 -5 -13z"/>
<path d="M4229 1959 c-68 -165 -243 -280 -403 -266 -48 4 -55 3 -31 -4 17 -6
59 -8 95 -5 88 8 179 53 250 126 51 51 119 164 108 176 -3 2 -11 -10 -19 -27z"/>
</g>
</svg>
