<?xml version="1.0" standalone="no"?>
<!DOCTYPE svg PUBLIC "-//W3C//DTD SVG 20010904//EN"
 "http://www.w3.org/TR/2001/REC-SVG-20010904/DTD/svg10.dtd">
<svg version="1.0" xmlns="http://www.w3.org/2000/svg"
 width="1024.000000pt" height="1024.000000pt" viewBox="0 0 1024.000000 1024.000000"
 preserveAspectRatio="xMidYMid meet">

<g transform="translate(0.000000,1024.000000) scale(0.100000,-0.100000)"
fill="#000000" stroke="none">
<path d="M6108 7633 c83 -2 221 -2 305 0 83 1 15 3 -153 3 -168 0 -236 -2
-152 -3z"/>
<path d="M5885 7611 c-58 -36 -96 -102 -94 -163 1 -28 2 -26 9 13 14 81 45
125 110 153 19 8 28 15 20 16 -8 0 -28 -8 -45 -19z"/>
<path d="M6638 7623 c7 -3 16 -2 19 1 4 3 -2 6 -13 5 -11 0 -14 -3 -6 -6z"/>
<path d="M6705 7603 c40 -21 74 -52 96 -88 11 -16 19 -24 19 -18 0 30 -106
124 -137 123 -4 -1 6 -8 22 -17z"/>
<path d="M6821 7470 c0 -8 4 -22 9 -30 12 -18 12 -2 0 25 -6 13 -9 15 -9 5z"/>
<path d="M5800 7400 c0 -25 49 -89 80 -105 41 -21 38 -11 -4 14 -19 12 -44 41
-55 64 -12 23 -21 35 -21 27z"/>
<path d="M3503 7383 c125 -2 329 -2 455 0 125 1 22 2 -228 2 -250 0 -353 -1
-227 -2z"/>
<path d="M3220 7370 c-11 -8 -7 -9 15 -4 37 8 45 14 19 14 -10 0 -26 -5 -34
-10z"/>
<path d="M4240 7364 c19 -8 48 -27 65 -42 l30 -27 -25 28 c-26 30 -70 57 -92
57 -7 -1 3 -8 22 -16z"/>
<path d="M3163 7328 c-18 -18 -37 -46 -42 -61 -13 -34 -14 -126 -2 -145 5 -8
6 7 3 37 -7 75 5 118 45 162 43 47 40 52 -4 7z"/>
<path d="M6861 7354 c-1 -5 10 -41 23 -80 14 -38 25 -64 25 -58 1 5 -10 41
-23 80 -14 38 -25 64 -25 58z"/>
<path d="M4330 7285 c0 -5 5 -17 10 -25 5 -8 10 -10 10 -5 0 6 -5 17 -10 25
-5 8 -10 11 -10 5z"/>
<path d="M6083 7273 c87 -2 227 -2 310 0 84 1 13 3 -158 3 -170 0 -239 -2
-152 -3z"/>
<path d="M6551 7240 c0 -8 4 -24 9 -35 5 -13 9 -14 9 -5 0 8 -4 24 -9 35 -5
13 -9 14 -9 5z"/>
<path d="M4352 7220 c0 -14 2 -19 5 -12 2 6 2 18 0 25 -3 6 -5 1 -5 -13z"/>
<path d="M6911 7190 c0 -8 4 -22 9 -30 12 -18 12 -2 0 25 -6 13 -9 15 -9 5z"/>
<path d="M4347 7150 c-6 -50 -45 -103 -87 -120 -17 -7 -29 -15 -26 -17 9 -10
66 29 91 62 23 29 47 115 33 115 -3 0 -8 -18 -11 -40z"/>
<path d="M6571 7175 c0 -5 37 -125 84 -265 46 -140 84 -248 84 -240 0 17 -167
520 -168 505z"/>
<path d="M6931 7135 c-1 -6 12 -49 28 -95 16 -47 30 -80 30 -75 1 6 -12 49
-28 95 -16 47 -30 80 -30 75z"/>
<path d="M3137 7085 c12 -22 52 -61 56 -54 1 2 -13 20 -32 39 -19 19 -29 26
-24 15z"/>
<path d="M3218 7018 c5 -5 16 -8 23 -6 8 3 3 7 -10 11 -17 4 -21 3 -13 -5z"/>
<path d="M3328 7003 c39 -2 105 -2 145 0 39 1 7 3 -73 3 -80 0 -112 -2 -72 -3z"/>
<path d="M4058 7003 c28 -2 76 -2 105 0 28 2 5 3 -53 3 -58 0 -81 -1 -52 -3z"/>
<path d="M3575 6943 c15 -36 25 -52 25 -41 0 11 -30 78 -35 78 -3 0 2 -17 10
-37z"/>
<path d="M6991 6940 c0 -8 4 -24 9 -35 5 -13 9 -14 9 -5 0 8 -4 24 -9 35 -5
13 -9 14 -9 5z"/>
<path d="M3960 6935 c0 -5 5 -17 10 -25 5 -8 10 -10 10 -5 0 6 -5 17 -10 25
-5 8 -10 11 -10 5z"/>
<path d="M3601 6885 c0 -5 6 -21 14 -35 8 -14 14 -20 14 -15 0 6 -6 21 -14 35
-8 14 -14 21 -14 15z"/>
<path d="M3981 6885 c0 -5 9 -28 20 -50 10 -22 16 -29 13 -15 -7 28 -33 80
-33 65z"/>
<path d="M3631 6815 c0 -5 9 -28 20 -50 10 -22 16 -29 13 -15 -7 28 -33 80
-33 65z"/>
<path d="M7032 6810 c0 -8 8 -37 18 -65 10 -27 18 -43 18 -35 0 8 -8 38 -18
65 -10 28 -18 43 -18 35z"/>
<path d="M4030 6765 c0 -5 5 -17 10 -25 5 -8 10 -10 10 -5 0 6 -5 17 -10 25
-5 8 -10 11 -10 5z"/>
<path d="M4051 6715 c0 -5 6 -21 14 -35 8 -14 14 -20 14 -15 0 6 -6 21 -14 35
-8 14 -14 21 -14 15z"/>
<path d="M7081 6657 c-2 -14 41 -148 45 -144 3 2 -6 37 -20 78 -13 41 -24 70
-25 66z"/>
<path d="M3701 6645 c0 -5 8 -26 19 -45 11 -19 19 -30 19 -25 0 6 -8 26 -19
45 -11 19 -19 31 -19 25z"/>
<path d="M4108 6633 c12 -2 30 -2 40 0 9 3 -1 5 -23 4 -22 0 -30 -2 -17 -4z"/>
<path d="M4218 6633 c12 -2 32 -2 45 0 12 2 2 4 -23 4 -25 0 -35 -2 -22 -4z"/>
<path d="M4343 6633 c31 -2 83 -2 115 0 31 2 5 3 -58 3 -63 0 -89 -1 -57 -3z"/>
<path d="M4558 6633 c7 -3 16 -2 19 1 4 3 -2 6 -13 5 -11 0 -14 -3 -6 -6z"/>
<path d="M4638 6633 c12 -2 32 -2 45 0 12 2 2 4 -23 4 -25 0 -35 -2 -22 -4z"/>
<path d="M4823 6633 c15 -2 39 -2 55 0 15 2 2 4 -28 4 -30 0 -43 -2 -27 -4z"/>
<path d="M4958 6633 c12 -2 32 -2 45 0 12 2 2 4 -23 4 -25 0 -35 -2 -22 -4z"/>
<path d="M5057 6633 c18 -2 50 -2 70 0 21 2 7 4 -32 4 -38 0 -55 -2 -38 -4z"/>
<path d="M5178 6633 c7 -3 16 -2 19 1 4 3 -2 6 -13 5 -11 0 -14 -3 -6 -6z"/>
<path d="M5278 6633 c7 -3 16 -2 19 1 4 3 -2 6 -13 5 -11 0 -14 -3 -6 -6z"/>
<path d="M5328 6633 c6 -2 18 -2 25 0 6 3 1 5 -13 5 -14 0 -19 -2 -12 -5z"/>
<path d="M5398 6633 c6 -2 18 -2 25 0 6 3 1 5 -13 5 -14 0 -19 -2 -12 -5z"/>
<path d="M5448 6633 c6 -2 18 -2 25 0 6 3 1 5 -13 5 -14 0 -19 -2 -12 -5z"/>
<path d="M5498 6633 c7 -3 16 -2 19 1 4 3 -2 6 -13 5 -11 0 -14 -3 -6 -6z"/>
<path d="M5578 6633 c7 -3 16 -2 19 1 4 3 -2 6 -13 5 -11 0 -14 -3 -6 -6z"/>
<path d="M5678 6633 c7 -3 16 -2 19 1 4 3 -2 6 -13 5 -11 0 -14 -3 -6 -6z"/>
<path d="M5918 6633 c7 -3 16 -2 19 1 4 3 -2 6 -13 5 -11 0 -14 -3 -6 -6z"/>
<path d="M6018 6633 c12 -2 32 -2 45 0 12 2 2 4 -23 4 -25 0 -35 -2 -22 -4z"/>
<path d="M6098 6633 c7 -3 16 -2 19 1 4 3 -2 6 -13 5 -11 0 -14 -3 -6 -6z"/>
<path d="M6138 6633 c7 -3 16 -2 19 1 4 3 -2 6 -13 5 -11 0 -14 -3 -6 -6z"/>
<path d="M6248 6633 c6 -2 18 -2 25 0 6 3 1 5 -13 5 -14 0 -19 -2 -12 -5z"/>
<path d="M6298 6633 c7 -3 16 -2 19 1 4 3 -2 6 -13 5 -11 0 -14 -3 -6 -6z"/>
<path d="M6343 6633 c9 -2 23 -2 30 0 6 3 -1 5 -18 5 -16 0 -22 -2 -12 -5z"/>
<path d="M6403 6633 c9 -2 23 -2 30 0 6 3 -1 5 -18 5 -16 0 -22 -2 -12 -5z"/>
<path d="M6512 6633 c37 -2 100 -2 140 0 40 1 10 3 -67 3 -77 0 -110 -1 -73
-3z"/>
<path d="M3740 6555 c0 -5 5 -17 10 -25 5 -8 10 -10 10 -5 0 6 -5 17 -10 25
-5 8 -10 11 -10 5z"/>
<path d="M3752 6478 c-6 -13 -21 -38 -32 -55 -12 -18 -20 -33 -17 -33 8 0 70
100 65 105 -3 3 -10 -5 -16 -17z"/>
<path d="M7131 6497 c-2 -14 71 -239 75 -234 2 2 -13 57 -35 123 -21 65 -39
115 -40 111z"/>
<path d="M3678 6358 c-8 -13 -24 -41 -37 -63 -26 -47 3 -10 37 47 24 40 24 54
0 16z"/>
<path d="M4823 6263 c306 -2 808 -2 1115 0 306 1 55 2 -558 2 -613 0 -864 -1
-557 -2z"/>
<path d="M3600 6230 c-6 -11 -8 -20 -6 -20 3 0 10 9 16 20 6 11 8 20 6 20 -3
0 -10 -9 -16 -20z"/>
<path d="M7211 6240 c0 -8 6 -28 14 -45 17 -39 18 -21 0 25 -7 19 -14 28 -14
20z"/>
<path d="M6460 6195 c-19 -19 -30 -35 -24 -34 9 0 70 69 62 69 -2 0 -19 -16
-38 -35z"/>
<path d="M4271 6205 c0 -5 6 -21 14 -35 8 -14 14 -20 14 -15 0 6 -6 21 -14 35
-8 14 -14 21 -14 15z"/>
<path d="M3499 6063 c-96 -162 -91 -153 -86 -153 2 0 37 55 77 123 41 67 80
132 88 145 8 12 12 22 9 22 -3 0 -43 -62 -88 -137z"/>
<path d="M7241 6150 c0 -8 4 -24 9 -35 5 -13 9 -14 9 -5 0 8 -4 24 -9 35 -5
13 -9 14 -9 5z"/>
<path d="M6303 6013 c-410 -479 -934 -1082 -1063 -1227 -19 -22 -30 -36 -23
-32 19 11 608 686 1016 1165 82 97 162 188 175 204 14 15 23 27 20 27 -4 0
-60 -62 -125 -137z"/>
<path d="M4300 6135 c0 -5 5 -17 10 -25 5 -8 10 -10 10 -5 0 6 -5 17 -10 25
-5 8 -10 11 -10 5z"/>
<path d="M6815 6081 c-95 -113 -611 -718 -633 -743 -14 -16 -23 -28 -20 -28 3
0 133 150 289 333 155 182 314 367 352 410 38 42 65 77 61 76 -5 0 -27 -22
-49 -48z"/>
<path d="M6893 6107 c3 -8 28 -87 57 -176 28 -90 53 -161 55 -159 6 5 -104
348 -111 348 -4 0 -4 -6 -1 -13z"/>
<path d="M4321 6088 c-1 -12 31 -89 35 -85 3 2 -4 24 -15 48 -11 24 -20 41
-20 37z"/>
<path d="M7261 6084 c-1 -15 40 -136 45 -131 2 2 -7 35 -20 73 -14 38 -25 64
-25 58z"/>
<path d="M3863 5978 c-28 -46 -100 -166 -162 -267 -61 -101 -110 -185 -108
-187 1 -2 28 38 59 89 30 51 99 164 152 251 107 176 119 196 112 196 -2 0 -26
-37 -53 -82z"/>
<path d="M3956 6047 c3 -10 9 -15 12 -12 3 3 0 11 -7 18 -10 9 -11 8 -5 -6z"/>
<path d="M3971 6015 c0 -5 9 -28 20 -50 10 -22 16 -29 13 -15 -7 28 -33 80
-33 65z"/>
<path d="M4371 5960 c0 -14 28 -72 29 -59 0 4 -7 22 -15 40 -8 19 -14 27 -14
19z"/>
<path d="M7311 5920 c0 -8 4 -24 9 -35 5 -13 9 -14 9 -5 0 8 -4 24 -9 35 -5
13 -9 14 -9 5z"/>
<path d="M4010 5915 c0 -5 5 -17 10 -25 5 -8 10 -10 10 -5 0 6 -5 17 -10 25
-5 8 -10 11 -10 5z"/>
<path d="M3390 5880 c-6 -11 -8 -20 -6 -20 3 0 10 9 16 20 6 11 8 20 6 20 -3
0 -10 -9 -16 -20z"/>
<path d="M4400 5885 c0 -5 5 -17 10 -25 5 -8 10 -10 10 -5 0 6 -5 17 -10 25
-5 8 -10 11 -10 5z"/>
<path d="M2340 5871 c-25 -4 34 -5 130 -3 96 2 180 5 185 7 18 6 -269 2 -315
-4z"/>
<path d="M7618 5873 c39 -2 105 -2 145 0 39 1 7 3 -73 3 -80 0 -112 -2 -72 -3z"/>
<path d="M2698 5863 c12 -2 30 -2 40 0 9 3 -1 5 -23 4 -22 0 -30 -2 -17 -4z"/>
<path d="M4030 5865 c0 -5 5 -17 10 -25 5 -8 10 -10 10 -5 0 6 -5 17 -10 25
-5 8 -10 11 -10 5z"/>
<path d="M7468 5863 c12 -2 30 -2 40 0 9 3 -1 5 -23 4 -22 0 -30 -2 -17 -4z"/>
<path d="M7868 5863 c12 -2 32 -2 45 0 12 2 2 4 -23 4 -25 0 -35 -2 -22 -4z"/>
<path d="M2253 5853 c9 -2 23 -2 30 0 6 3 -1 5 -18 5 -16 0 -22 -2 -12 -5z"/>
<path d="M2783 5853 c9 -2 23 -2 30 0 6 3 -1 5 -18 5 -16 0 -22 -2 -12 -5z"/>
<path d="M7375 5850 c-14 -7 -8 -8 20 -3 22 3 42 7 44 9 9 8 -45 2 -64 -6z"/>
<path d="M7958 5853 c6 -2 18 -2 25 0 6 3 1 5 -13 5 -14 0 -19 -2 -12 -5z"/>
<path d="M2130 5834 c-245 -65 -439 -167 -642 -340 -116 -100 -257 -264 -333
-389 -32 -51 0 -14 53 65 58 85 169 211 255 291 198 182 439 308 722 377 22 6
31 10 20 10 -11 1 -45 -6 -75 -14z"/>
<path d="M2838 5843 c6 -2 18 -2 25 0 6 3 1 5 -13 5 -14 0 -19 -2 -12 -5z"/>
<path d="M3348 5813 c-30 -46 -60 -103 -54 -103 2 0 15 19 28 43 13 23 32 54
42 70 10 15 16 27 13 27 -2 0 -16 -17 -29 -37z"/>
<path d="M8020 5840 c14 -4 34 -8 45 -8 16 0 15 2 -5 8 -14 4 -34 8 -45 8 -16
0 -15 -2 5 -8z"/>
<path d="M2888 5833 c6 -2 18 -2 25 0 6 3 1 5 -13 5 -14 0 -19 -2 -12 -5z"/>
<path d="M4422 5830 c26 -70 81 -200 84 -197 5 4 -73 198 -83 206 -3 3 -4 -1
-1 -9z"/>
<path d="M2945 5820 c11 -5 27 -9 35 -9 9 0 8 4 -5 9 -11 5 -27 9 -35 9 -9 0
-8 -4 5 -9z"/>
<path d="M8105 5820 c11 -5 27 -9 35 -9 9 0 8 4 -5 9 -11 5 -27 9 -35 9 -9 0
-8 -4 5 -9z"/>
<path d="M4050 5815 c0 -5 5 -17 10 -25 5 -8 10 -10 10 -5 0 6 -5 17 -10 25
-5 8 -10 11 -10 5z"/>
<path d="M3015 5800 c27 -12 43 -12 25 0 -8 5 -22 9 -30 9 -10 0 -8 -3 5 -9z"/>
<path d="M3091 5776 c8 -8 133 -56 136 -52 2 2 -26 15 -62 30 -62 25 -84 31
-74 22z"/>
<path d="M4071 5765 c0 -5 9 -28 20 -50 10 -22 16 -29 13 -15 -7 28 -33 80
-33 65z"/>
<path d="M8339 5735 c41 -20 76 -34 78 -32 4 5 -130 67 -143 67 -5 -1 24 -16
65 -35z"/>
<path d="M7011 5744 c0 -11 3 -14 6 -6 3 7 2 16 -1 19 -3 4 -6 -2 -5 -13z"/>
<path d="M6930 5679 c-174 -94 -341 -227 -466 -369 -82 -93 -91 -109 -14 -25
166 181 328 308 508 399 28 14 52 29 52 31 0 7 0 8 -80 -36z"/>
<path d="M8435 5693 c6 -5 33 -22 60 -37 28 -15 41 -20 30 -11 -22 19 -106 63
-90 48z"/>
<path d="M4115 5653 c4 -10 16 -42 27 -71 12 -29 23 -51 25 -48 5 5 -47 136
-54 136 -3 0 -2 -8 2 -17z"/>
<path d="M4510 5615 c0 -5 5 -17 10 -25 5 -8 10 -10 10 -5 0 6 -5 17 -10 25
-5 8 -10 11 -10 5z"/>
<path d="M8580 5607 c0 -2 21 -18 48 -36 35 -25 40 -26 17 -6 -30 26 -65 49
-65 42z"/>
<path d="M4530 5566 c0 -4 41 -107 90 -229 50 -122 100 -246 112 -274 12 -29
23 -51 25 -49 2 2 -17 55 -42 117 -184 452 -185 454 -185 435z"/>
<path d="M8750 5474 c100 -91 152 -145 218 -226 68 -85 80 -89 15 -6 -59 76
-180 198 -253 257 -39 31 -34 24 20 -25z"/>
<path d="M2340 5521 c-19 -4 35 -5 120 -3 85 2 160 5 165 7 19 6 -250 2 -285
-4z"/>
<path d="M7653 5523 c37 -2 96 -2 130 0 34 2 4 3 -68 3 -71 0 -99 -1 -62 -3z"/>
<path d="M2653 5513 c9 -2 23 -2 30 0 6 3 -1 5 -18 5 -16 0 -22 -2 -12 -5z"/>
<path d="M4172 5510 c24 -64 61 -150 64 -147 5 4 -53 148 -63 156 -3 3 -4 -1
-1 -9z"/>
<path d="M7518 5513 c12 -2 30 -2 40 0 9 3 -1 5 -23 4 -22 0 -30 -2 -17 -4z"/>
<path d="M7863 5513 c9 -2 25 -2 35 0 9 3 1 5 -18 5 -19 0 -27 -2 -17 -5z"/>
<path d="M2268 5503 c7 -3 16 -2 19 1 4 3 -2 6 -13 5 -11 0 -14 -3 -6 -6z"/>
<path d="M2765 5495 c75 -17 92 -17 40 0 -22 8 -53 13 -70 13 -19 0 -7 -5 30
-13z"/>
<path d="M7928 5503 c6 -2 18 -2 25 0 6 3 1 5 -13 5 -14 0 -19 -2 -12 -5z"/>
<path d="M2218 5493 c6 -2 18 -2 25 0 6 3 1 5 -13 5 -14 0 -19 -2 -12 -5z"/>
<path d="M7985 5490 c11 -5 27 -9 35 -9 9 0 8 4 -5 9 -11 5 -27 9 -35 9 -9 0
-8 -4 5 -9z"/>
<path d="M2155 5480 c-13 -5 -14 -9 -5 -9 8 0 24 4 35 9 13 5 14 9 5 9 -8 0
-24 -4 -35 -9z"/>
<path d="M2865 5470 c11 -5 27 -9 35 -9 9 0 8 4 -5 9 -11 5 -27 9 -35 9 -9 0
-8 -4 5 -9z"/>
<path d="M7451 5470 c0 -8 4 -22 9 -30 12 -18 12 -2 0 25 -6 13 -9 15 -9 5z"/>
<path d="M2100 5460 c-8 -5 -10 -10 -5 -10 6 0 17 5 25 10 8 5 11 10 5 10 -5
0 -17 -5 -25 -10z"/>
<path d="M3721 5376 c47 -50 107 -119 134 -153 26 -35 50 -63 52 -63 14 0 -77
109 -167 200 -80 81 -85 85 -19 16z"/>
<path d="M8070 5466 c0 -2 28 -14 63 -26 34 -12 83 -33 110 -46 26 -14 47 -22
47 -19 0 8 -100 56 -159 76 -58 20 -61 21 -61 15z"/>
<path d="M2930 5452 c8 -5 26 -13 40 -16 17 -5 20 -4 10 2 -8 5 -26 13 -40 16
-17 5 -20 4 -10 -2z"/>
<path d="M2033 5434 c-18 -8 -33 -16 -33 -19 0 -5 70 22 79 30 8 9 -14 4 -46
-11z"/>
<path d="M3010 5420 c8 -5 20 -10 25 -10 6 0 3 5 -5 10 -8 5 -19 10 -25 10 -5
0 -3 -5 5 -10z"/>
<path d="M7472 5408 c3 -7 13 -37 23 -66 9 -29 19 -52 21 -49 5 5 -36 127 -43
127 -3 0 -3 -6 -1 -12z"/>
<path d="M1945 5388 c-40 -21 -125 -79 -125 -84 0 -6 9 -1 71 40 26 17 55 36
65 43 24 15 16 16 -11 1z"/>
<path d="M8301 5367 c3 -4 34 -25 70 -47 35 -22 51 -30 35 -16 -27 22 -118 77
-105 63z"/>
<path d="M3057 5353 c-3 -5 -44 -73 -92 -153 -118 -197 -130 -217 -118 -205 9
8 64 97 205 333 11 17 18 32 15 32 -3 0 -8 -3 -10 -7z"/>
<path d="M7038 5319 c-38 -22 -68 -42 -68 -45 0 -3 15 3 33 14 17 11 52 32 77
46 25 14 41 26 35 26 -5 0 -40 -18 -77 -41z"/>
<path d="M4240 5345 c0 -5 5 -17 10 -25 5 -8 10 -10 10 -5 0 6 -5 17 -10 25
-5 8 -10 11 -10 5z"/>
<path d="M7132 5330 c3 -8 31 -93 63 -188 31 -95 59 -172 61 -170 5 5 -112
358 -122 366 -4 4 -5 0 -2 -8z"/>
<path d="M1789 5283 c-13 -16 -12 -17 4 -4 9 7 17 15 17 17 0 8 -8 3 -21 -13z"/>
<path d="M4260 5295 c0 -5 5 -17 10 -25 5 -8 10 -10 10 -5 0 6 -5 17 -10 25
-5 8 -10 11 -10 5z"/>
<path d="M6124 5268 l-29 -33 33 29 c30 28 37 36 29 36 -2 0 -16 -15 -33 -32z"/>
<path d="M7521 5270 c0 -8 6 -28 14 -45 17 -39 18 -21 0 25 -7 19 -14 28 -14
20z"/>
<path d="M8444 5272 c8 -13 66 -56 66 -49 0 3 -17 17 -37 33 -20 15 -33 23
-29 16z"/>
<path d="M6884 5218 c-76 -58 -161 -140 -214 -208 -19 -25 8 -1 59 53 52 54
122 119 155 144 71 54 82 63 74 63 -3 0 -36 -23 -74 -52z"/>
<path d="M1685 5196 c-39 -35 -68 -66 -65 -68 3 -2 37 27 75 64 89 86 82 89
-10 4z"/>
<path d="M4281 5245 c0 -5 9 -28 20 -50 10 -22 16 -29 13 -15 -7 28 -33 80
-33 65z"/>
<path d="M6013 5138 c-43 -51 -98 -115 -123 -143 -25 -27 -34 -41 -21 -30 27
23 234 265 226 265 -2 0 -40 -42 -82 -92z"/>
<path d="M8585 5150 c38 -38 72 -70 74 -70 3 0 -26 32 -64 70 -38 39 -72 70
-74 70 -3 0 26 -31 64 -70z"/>
<path d="M6322 5128 c-56 -83 -136 -227 -130 -233 2 -2 19 26 38 62 19 37 61
106 92 155 69 106 69 118 0 16z"/>
<path d="M3468 5115 c104 -97 162 -173 230 -295 28 -52 52 -91 52 -86 0 15
-79 156 -118 211 -41 58 -173 196 -217 228 -16 12 7 -14 53 -58z"/>
<path d="M3342 5129 c-12 -21 -21 -39 -18 -39 7 0 49 71 44 75 -2 2 -14 -14
-26 -36z"/>
<path d="M9060 5123 c17 -29 34 -53 37 -53 6 0 -37 71 -55 90 -7 8 0 -9 18
-37z"/>
<path d="M3916 5140 c4 -8 19 -33 34 -55 15 -22 42 -68 60 -102 19 -34 36 -61
38 -59 5 6 -95 180 -119 207 -11 13 -17 17 -13 9z"/>
<path d="M4326 5130 c3 -14 11 -32 16 -40 6 -10 7 -7 2 10 -3 14 -11 32 -16
40 -6 10 -7 7 -2 -10z"/>
<path d="M7570 5125 c0 -15 52 -166 56 -162 3 2 -8 39 -22 83 -26 76 -34 96
-34 79z"/>
<path d="M1560 5062 c-40 -49 -78 -103 -53 -77 34 37 105 127 102 129 -2 2
-24 -21 -49 -52z"/>
<path d="M3300 5060 c-6 -11 -8 -20 -6 -20 3 0 10 9 16 20 6 11 8 20 6 20 -3
0 -10 -9 -16 -20z"/>
<path d="M1107 5028 c-36 -63 -69 -129 -65 -133 2 -2 24 37 50 86 49 92 59
121 15 47z"/>
<path d="M4352 5060 c24 -64 61 -150 64 -147 5 4 -53 148 -63 156 -3 3 -4 -1
-1 -9z"/>
<path d="M8680 5045 c13 -14 26 -25 28 -25 3 0 -5 11 -18 25 -13 14 -26 25
-28 25 -3 0 5 -11 18 -25z"/>
<path d="M9148 4973 c26 -50 48 -90 50 -88 5 4 -63 136 -82 160 -9 11 6 -21
32 -72z"/>
<path d="M3254 4983 c-15 -27 -34 -59 -42 -73 l-14 -25 18 22 c22 27 77 123
71 123 -3 0 -18 -21 -33 -47z"/>
<path d="M8734 4977 c16 -20 30 -37 33 -37 7 0 -36 58 -49 66 -7 4 1 -9 16
-29z"/>
<path d="M4760 4995 c0 -5 5 -17 10 -25 5 -8 10 -10 10 -5 0 6 -5 17 -10 25
-5 8 -10 11 -10 5z"/>
<path d="M2820 4960 c-6 -11 -8 -20 -6 -20 3 0 10 9 16 20 6 11 8 20 6 20 -3
0 -10 -9 -16 -20z"/>
<path d="M1462 4928 c-16 -24 -37 -59 -46 -78 -18 -38 -11 -29 46 61 43 68 43
80 0 17z"/>
<path d="M6602 4918 c-29 -42 -81 -139 -68 -127 10 9 106 169 101 169 -2 0
-17 -19 -33 -42z"/>
<path d="M7260 4954 c0 -16 52 -165 56 -161 2 2 -8 39 -22 83 -25 77 -34 97
-34 78z"/>
<path d="M4780 4945 c0 -5 5 -17 10 -25 5 -8 10 -10 10 -5 0 6 -5 17 -10 25
-5 8 -10 11 -10 5z"/>
<path d="M7630 4945 c0 -5 5 -17 10 -25 5 -8 10 -10 10 -5 0 6 -5 17 -10 25
-5 8 -10 11 -10 5z"/>
<path d="M5819 4913 l-24 -28 28 24 c25 23 32 31 24 31 -2 0 -14 -12 -28 -27z"/>
<path d="M2790 4910 c-6 -11 -8 -20 -6 -20 3 0 10 9 16 20 6 11 8 20 6 20 -3
0 -10 -9 -16 -20z"/>
<path d="M4051 4905 c0 -5 6 -21 14 -35 8 -14 14 -20 14 -15 0 6 -6 21 -14 35
-8 14 -14 21 -14 15z"/>
<path d="M4420 4895 c0 -10 109 -277 117 -285 10 -10 -9 43 -62 168 -30 70
-54 123 -55 117z"/>
<path d="M4806 4882 c3 -13 17 -47 30 -75 13 -29 21 -41 18 -27 -4 14 -17 48
-30 75 -13 28 -21 39 -18 27z"/>
<path d="M8848 4781 c31 -65 59 -117 61 -115 5 5 -106 234 -113 234 -3 0 21
-53 52 -119z"/>
<path d="M1026 4865 c-9 -26 -7 -32 5 -12 6 10 9 21 6 23 -2 3 -7 -2 -11 -11z"/>
<path d="M2759 4858 c-7 -13 -19 -34 -27 -48 -14 -24 -13 -24 3 -5 20 24 48
75 41 75 -3 0 -11 -10 -17 -22z"/>
<path d="M3180 4860 c-6 -11 -8 -20 -6 -20 3 0 10 9 16 20 6 11 8 20 6 20 -3
0 -10 -9 -16 -20z"/>
<path d="M6152 4801 c-35 -91 -55 -161 -49 -167 2 -3 9 15 16 40 6 24 24 79
41 122 16 43 28 79 26 81 -2 2 -18 -32 -34 -76z"/>
<path d="M7657 4859 c4 -13 8 -18 11 -10 2 7 -1 18 -6 23 -8 8 -9 4 -5 -13z"/>
<path d="M9206 4855 c50 -140 73 -198 73 -189 1 17 -45 148 -64 180 -9 16 -13
20 -9 9z"/>
<path d="M5749 4833 c-13 -16 -12 -17 4 -4 16 13 21 21 13 21 -2 0 -10 -8 -17
-17z"/>
<path d="M4086 4820 c3 -14 11 -32 16 -40 6 -10 7 -7 2 10 -3 14 -11 32 -16
40 -6 10 -7 7 -2 -10z"/>
<path d="M991 4769 c-12 -35 -21 -68 -20 -73 0 -6 11 20 25 58 13 38 22 71 20
73 -2 2 -13 -24 -25 -58z"/>
<path d="M3110 4743 c-64 -107 -62 -103 -57 -103 2 0 28 39 57 88 63 102 62
102 57 102 -2 0 -28 -39 -57 -87z"/>
<path d="M7671 4825 c1 -19 18 -51 18 -35 0 8 -4 22 -9 30 -5 8 -9 11 -9 5z"/>
<path d="M5611 4670 c-67 -77 -120 -140 -117 -140 2 0 50 53 107 118 56 64
111 127 122 140 11 12 18 22 15 22 -3 0 -60 -63 -127 -140z"/>
<path d="M2674 4718 c-20 -35 -43 -74 -51 -87 -8 -13 -11 -21 -5 -17 6 3 25
32 42 64 18 31 40 67 48 80 8 12 12 22 9 22 -3 0 -22 -28 -43 -62z"/>
<path d="M4116 4740 c3 -14 11 -32 16 -40 6 -10 7 -7 2 10 -3 14 -11 32 -16
40 -6 10 -7 7 -2 -10z"/>
<path d="M4864 4740 c9 -32 39 -101 43 -97 2 3 -8 29 -22 58 -14 30 -23 47
-21 39z"/>
<path d="M7334 4733 c21 -67 65 -186 65 -177 1 13 -57 185 -65 193 -4 3 -3 -4
0 -16z"/>
<path d="M5107 4635 c-54 -58 -95 -105 -91 -105 6 0 53 49 158 168 74 81 30
41 -67 -63z"/>
<path d="M6496 4725 c-9 -26 -7 -32 5 -12 6 10 9 21 6 23 -2 3 -7 -2 -11 -11z"/>
<path d="M7706 4720 c3 -14 11 -32 16 -40 6 -10 7 -7 2 10 -3 14 -11 32 -16
40 -6 10 -7 7 -2 -10z"/>
<path d="M3750 4719 c0 -4 7 -23 15 -44 9 -20 27 -76 40 -123 13 -48 24 -77
24 -65 1 25 -53 199 -69 223 -5 8 -10 12 -10 9z"/>
<path d="M6471 4659 c-6 -18 -11 -37 -10 -43 0 -6 7 7 15 28 8 22 12 41 10 43
-2 2 -9 -10 -15 -28z"/>
<path d="M941 4592 c-12 -49 -21 -98 -20 -108 0 -11 11 28 25 85 13 58 22 106
20 109 -2 2 -13 -37 -25 -86z"/>
<path d="M4141 4664 c0 -11 3 -14 6 -6 3 7 2 16 -1 19 -3 4 -6 -2 -5 -13z"/>
<path d="M7731 4650 c0 -8 4 -22 9 -30 12 -18 12 -2 0 25 -6 13 -9 15 -9 5z"/>
<path d="M8910 4645 c0 -5 5 -17 10 -25 5 -8 10 -10 10 -5 0 6 -5 17 -10 25
-5 8 -10 11 -10 5z"/>
<path d="M9282 4640 c0 -8 4 -26 8 -40 6 -20 8 -21 8 -5 0 11 -3 29 -8 40 -5
12 -8 14 -8 5z"/>
<path d="M1316 4625 c-3 -9 -6 -22 -5 -28 0 -7 5 -1 10 12 5 13 8 26 5 28 -2
2 -6 -3 -10 -12z"/>
<path d="M4150 4634 c1 -23 48 -217 49 -201 1 20 -38 199 -45 206 -2 2 -4 0
-4 -5z"/>
<path d="M3028 4608 c-8 -13 -24 -41 -37 -63 -26 -47 3 -10 37 47 24 40 24 54
0 16z"/>
<path d="M6091 4604 c0 -11 3 -14 6 -6 3 7 2 16 -1 19 -3 4 -6 -2 -5 -13z"/>
<path d="M4920 4601 c0 -6 4 -13 10 -16 6 -3 7 1 4 9 -7 18 -14 21 -14 7z"/>
<path d="M2588 4578 c-8 -13 -24 -41 -37 -63 -26 -47 3 -10 37 47 24 40 24 54
0 16z"/>
<path d="M4546 4582 c3 -13 17 -47 30 -75 13 -29 22 -41 18 -29 -3 13 -17 47
-30 75 -13 29 -22 41 -18 29z"/>
<path d="M8932 4590 c0 -8 4 -26 8 -40 6 -20 8 -21 8 -5 0 11 -3 29 -8 40 -5
12 -8 14 -8 5z"/>
<path d="M1301 4564 c0 -11 3 -14 6 -6 3 7 2 16 -1 19 -3 4 -6 -2 -5 -13z"/>
<path d="M6071 4523 c-13 -63 -27 -231 -19 -223 3 3 8 42 12 87 3 45 11 105
17 133 6 28 9 53 6 56 -2 2 -9 -22 -16 -53z"/>
<path d="M4950 4550 c6 -11 13 -20 16 -20 2 0 0 9 -6 20 -6 11 -13 20 -16 20
-2 0 0 -9 6 -20z"/>
<path d="M6441 4554 c0 -11 3 -14 6 -6 3 7 2 16 -1 19 -3 4 -6 -2 -5 -13z"/>
<path d="M7761 4565 c1 -19 18 -51 18 -35 0 8 -4 22 -9 30 -5 8 -9 11 -9 5z"/>
<path d="M9301 4554 c0 -11 3 -14 6 -6 3 7 2 16 -1 19 -3 4 -6 -2 -5 -13z"/>
<path d="M1291 4524 c0 -11 3 -14 6 -6 3 7 2 16 -1 19 -3 4 -6 -2 -5 -13z"/>
<path d="M7402 4535 c0 -5 6 -26 13 -45 7 -19 14 -28 14 -20 0 8 -6 29 -14 45
-7 17 -13 26 -13 20z"/>
<path d="M6431 4514 c0 -11 3 -14 6 -6 3 7 2 16 -1 19 -3 4 -6 -2 -5 -13z"/>
<path d="M5454 4488 l-29 -33 33 29 c17 17 32 31 32 33 0 8 -8 1 -36 -29z"/>
<path d="M8952 4505 c0 -11 4 -33 8 -50 7 -27 8 -27 8 -5 0 14 -4 36 -8 50 -6
20 -8 21 -8 5z"/>
<path d="M9312 4500 c0 -14 2 -19 5 -12 2 6 2 18 0 25 -3 6 -5 1 -5 -13z"/>
<path d="M1281 4484 c0 -11 3 -14 6 -6 3 7 2 16 -1 19 -3 4 -6 -2 -5 -13z"/>
<path d="M2949 4478 c-7 -13 -19 -34 -27 -48 -14 -24 -13 -24 3 -5 20 24 48
75 41 75 -3 0 -11 -10 -17 -22z"/>
<path d="M6415 4435 c-4 -31 -5 -58 -3 -61 3 -2 8 21 12 52 4 31 5 59 2 61 -2
3 -8 -21 -11 -52z"/>
<path d="M2466 4378 c-30 -51 -58 -102 -61 -113 -3 -11 1 -6 10 10 10 17 30
50 45 75 58 95 71 120 67 120 -3 0 -30 -42 -61 -92z"/>
<path d="M9323 4435 c0 -22 2 -30 4 -17 2 12 2 30 0 40 -3 9 -5 -1 -4 -23z"/>
<path d="M3832 4435 c0 -16 2 -22 5 -12 2 9 2 23 0 30 -3 6 -5 -1 -5 -18z"/>
<path d="M1273 4415 c0 -22 2 -30 4 -17 2 12 2 30 0 40 -3 9 -5 -1 -4 -23z"/>
<path d="M5385 4408 l-40 -43 43 40 c39 36 47 45 39 45 -2 0 -21 -19 -42 -42z"/>
<path d="M7431 4445 c1 -19 18 -51 18 -35 0 8 -4 22 -9 30 -5 8 -9 11 -9 5z"/>
<path d="M912 4410 c0 -19 2 -27 5 -17 2 9 2 25 0 35 -3 9 -5 1 -5 -18z"/>
<path d="M7811 4410 c0 -8 4 -22 9 -30 12 -18 12 -2 0 25 -6 13 -9 15 -9 5z"/>
<path d="M8977 4280 c3 -80 6 -149 8 -155 7 -21 3 222 -4 260 -5 23 -6 -20 -4
-105z"/>
<path d="M4201 4384 c0 -11 3 -14 6 -6 3 7 2 16 -1 19 -3 4 -6 -2 -5 -13z"/>
<path d="M7452 4385 c0 -5 6 -26 13 -45 7 -19 14 -28 14 -20 0 8 -6 29 -14 45
-7 17 -13 26 -13 20z"/>
<path d="M9334 4225 c0 -93 2 -133 3 -88 2 45 2 122 0 170 -1 48 -3 12 -3 -82z"/>
<path d="M4420 4372 c0 -5 14 -7 30 -4 17 2 30 6 30 8 0 2 -13 4 -30 4 -16 0
-30 -4 -30 -8z"/>
<path d="M4518 4373 c18 -2 45 -2 60 0 15 2 0 4 -33 4 -33 0 -45 -2 -27 -4z"/>
<path d="M902 4225 c0 -82 3 -170 7 -195 4 -25 5 36 3 135 -4 226 -10 257 -10
60z"/>
<path d="M1263 4310 c0 -36 2 -50 4 -32 2 17 2 47 0 65 -2 17 -4 3 -4 -33z"/>
<path d="M4323 4363 c15 -2 39 -2 55 0 15 2 2 4 -28 4 -30 0 -43 -2 -27 -4z"/>
<path d="M6404 4235 c0 -71 1 -99 3 -62 2 37 2 96 0 130 -2 34 -3 4 -3 -68z"/>
<path d="M5349 4335 c17 -33 31 -51 31 -40 0 6 -10 21 -21 35 -13 17 -17 18
-10 5z"/>
<path d="M7845 4316 c7 -25 23 -95 29 -126 3 -14 3 -2 1 26 -2 28 -11 66 -19
85 -9 19 -14 26 -11 15z"/>
<path d="M7486 4280 c3 -14 11 -32 16 -40 6 -10 7 -7 2 10 -3 14 -11 32 -16
40 -6 10 -7 7 -2 -10z"/>
<path d="M6043 4230 c0 -30 3 -89 7 -130 l7 -75 0 60 c0 33 -3 92 -7 130 -7
68 -7 68 -7 15z"/>
<path d="M2393 4190 c0 -30 2 -43 4 -27 2 15 2 39 0 55 -2 15 -4 2 -4 -28z"/>
<path d="M5401 4224 c0 -11 3 -14 6 -6 3 7 2 16 -1 19 -3 4 -6 -2 -5 -13z"/>
<path d="M1263 4145 c0 -38 2 -53 4 -32 2 20 2 52 0 70 -2 17 -4 1 -4 -38z"/>
<path d="M5413 4125 c0 -38 2 -53 4 -32 2 20 2 52 0 70 -2 17 -4 1 -4 -38z"/>
<path d="M7846 4125 c-20 -37 -53 -63 -95 -75 -21 -7 -22 -8 -6 -9 31 -1 80
33 105 73 12 21 20 39 18 41 -2 2 -12 -11 -22 -30z"/>
<path d="M2400 4125 c0 -26 53 -84 94 -104 45 -21 50 -21 688 -19 l643 3 -650
5 c-580 4 -653 7 -680 22 -32 17 -65 51 -83 83 -6 11 -12 15 -12 10z"/>
<path d="M7549 4112 c5 -10 18 -25 27 -33 11 -9 9 -2 -6 19 -26 35 -36 42 -21
14z"/>
<path d="M8966 4043 c-4 -38 -14 -94 -22 -127 -8 -32 -13 -60 -11 -62 2 -3 11
24 20 58 17 67 33 198 25 198 -3 0 -8 -30 -12 -67z"/>
<path d="M6412 4065 c-1 -16 3 -48 7 -70 11 -53 12 -5 2 55 -6 34 -9 37 -9 15z"/>
<path d="M7614 4055 c22 -17 79 -30 98 -22 7 3 0 6 -15 6 -15 1 -44 8 -65 16
-32 13 -35 13 -18 0z"/>
<path d="M1272 4030 c0 -19 2 -27 5 -17 2 9 2 25 0 35 -3 9 -5 1 -5 -18z"/>
<path d="M5401 4034 c0 -11 3 -14 6 -6 3 7 2 16 -1 19 -3 4 -6 -2 -5 -13z"/>
<path d="M9323 4005 c0 -22 2 -30 4 -17 2 12 2 30 0 40 -3 9 -5 -1 -4 -23z"/>
<path d="M4393 4010 l189 -5 14 -30 c11 -24 13 -25 8 -5 -13 50 -14 50 -213
48 l-186 -2 188 -6z"/>
<path d="M6066 3965 c7 -73 35 -186 70 -283 39 -109 38 -82 -2 36 -19 56 -43
148 -54 205 -14 71 -18 84 -14 42z"/>
<path d="M5391 4003 c-1 -6 -4 -20 -7 -30 -5 -17 -5 -17 6 0 6 10 9 23 6 30
-3 9 -5 9 -5 0z"/>
<path d="M1281 3974 c0 -11 3 -14 6 -6 3 7 2 16 -1 19 -3 4 -6 -2 -5 -13z"/>
<path d="M922 3955 c0 -16 2 -22 5 -12 2 9 2 23 0 30 -3 6 -5 -1 -5 -18z"/>
<path d="M3831 3954 c0 -11 3 -14 6 -6 3 7 2 16 -1 19 -3 4 -6 -2 -5 -13z"/>
<path d="M4182 3945 c0 -16 2 -22 5 -12 2 9 2 23 0 30 -3 6 -5 -1 -5 -18z"/>
<path d="M5366 3933 c-6 -14 -5 -15 5 -6 7 7 10 15 7 18 -3 3 -9 -2 -12 -12z"/>
<path d="M9312 3930 c0 -14 2 -19 5 -12 2 6 2 18 0 25 -3 6 -5 1 -5 -13z"/>
<path d="M1292 3925 c0 -11 3 -29 8 -40 11 -25 11 1 0 35 -6 20 -8 21 -8 5z"/>
<path d="M4631 3901 c12 -22 43 -59 68 -83 l45 -43 -40 45 c-22 25 -50 62 -63
83 -30 49 -38 48 -10 -2z"/>
<path d="M3812 3888 c-6 -23 -9 -44 -7 -46 2 -2 9 15 15 38 6 23 9 44 7 46 -2
3 -9 -14 -15 -38z"/>
<path d="M931 3894 c0 -11 3 -14 6 -6 3 7 2 16 -1 19 -3 4 -6 -2 -5 -13z"/>
<path d="M4171 3894 c0 -11 3 -14 6 -6 3 7 2 16 -1 19 -3 4 -6 -2 -5 -13z"/>
<path d="M5325 3869 c-34 -47 -87 -92 -153 -125 -26 -14 -36 -22 -22 -18 57
13 167 106 204 172 16 28 -3 9 -29 -29z"/>
<path d="M6441 3894 c0 -11 3 -14 6 -6 3 7 2 16 -1 19 -3 4 -6 -2 -5 -13z"/>
<path d="M9302 3880 c0 -14 2 -19 5 -12 2 6 2 18 0 25 -3 6 -5 1 -5 -13z"/>
<path d="M942 3855 c0 -21 25 -107 27 -90 0 6 -6 33 -13 60 -8 28 -14 41 -14
30z"/>
<path d="M4161 3854 c0 -11 3 -14 6 -6 3 7 2 16 -1 19 -3 4 -6 -2 -5 -13z"/>
<path d="M6450 3857 c0 -32 101 -277 115 -277 2 0 -11 33 -30 73 -19 40 -45
106 -59 147 -14 41 -26 67 -26 57z"/>
<path d="M1311 3844 c0 -11 3 -14 6 -6 3 7 2 16 -1 19 -3 4 -6 -2 -5 -13z"/>
<path d="M9291 3834 c0 -11 3 -14 6 -6 3 7 2 16 -1 19 -3 4 -6 -2 -5 -13z"/>
<path d="M4151 3814 c0 -11 3 -14 6 -6 3 7 2 16 -1 19 -3 4 -6 -2 -5 -13z"/>
<path d="M9281 3794 c0 -11 3 -14 6 -6 3 7 2 16 -1 19 -3 4 -6 -2 -5 -13z"/>
<path d="M1330 3785 c0 -5 5 -17 10 -25 5 -8 10 -10 10 -5 0 6 -5 17 -10 25
-5 8 -10 11 -10 5z"/>
<path d="M4136 3764 c-4 -14 -5 -28 -3 -31 3 -2 8 8 11 23 4 14 5 28 3 31 -3
2 -8 -8 -11 -23z"/>
<path d="M4756 3769 c6 -11 84 -52 89 -47 2 2 -19 15 -46 29 -27 15 -46 23
-43 18z"/>
<path d="M3766 3755 c-9 -26 -7 -32 5 -12 6 10 9 21 6 23 -2 3 -7 -2 -11 -11z"/>
<path d="M9271 3754 c0 -11 3 -14 6 -6 3 7 2 16 -1 19 -3 4 -6 -2 -5 -13z"/>
<path d="M971 3740 c0 -8 4 -24 9 -35 5 -13 9 -14 9 -5 0 8 -4 24 -9 35 -5 13
-9 14 -9 5z"/>
<path d="M8877 3715 c-24 -50 -20 -58 4 -12 11 22 19 41 17 43 -3 2 -12 -12
-21 -31z"/>
<path d="M1350 3735 c0 -5 5 -17 10 -25 5 -8 10 -10 10 -5 0 6 -5 17 -10 25
-5 8 -10 11 -10 5z"/>
<path d="M4875 3710 c19 -8 73 -14 64 -6 -2 2 -22 6 -44 9 -28 5 -34 4 -20 -3z"/>
<path d="M5053 3703 c9 -2 23 -2 30 0 6 3 -1 5 -18 5 -16 0 -22 -2 -12 -5z"/>
<path d="M9251 3693 c-1 -6 -4 -20 -7 -30 -5 -17 -5 -17 6 0 6 10 9 23 6 30
-3 9 -5 9 -5 0z"/>
<path d="M1370 3681 c0 -6 4 -13 10 -16 6 -3 7 1 4 9 -7 18 -14 21 -14 7z"/>
<path d="M3709 3628 c-17 -34 -43 -80 -57 -103 -14 -22 -19 -35 -11 -28 16 13
114 193 105 193 -3 0 -20 -28 -37 -62z"/>
<path d="M4101 3659 c-6 -18 -9 -34 -7 -36 2 -2 9 10 15 28 6 18 9 34 7 36 -2
2 -9 -10 -15 -28z"/>
<path d="M996 3660 c3 -14 11 -32 16 -40 6 -10 7 -7 2 10 -3 14 -11 32 -16 40
-6 10 -7 7 -2 -10z"/>
<path d="M9222 3615 c-17 -37 -14 -45 4 -12 9 16 14 31 11 33 -2 2 -9 -7 -15
-21z"/>
<path d="M8825 3609 c-4 -6 -5 -12 -2 -15 2 -3 7 2 10 11 7 17 1 20 -8 4z"/>
<path d="M1410 3601 c0 -6 4 -13 10 -16 6 -3 7 1 4 9 -7 18 -14 21 -14 7z"/>
<path d="M1020 3595 c0 -5 5 -17 10 -25 5 -8 10 -10 10 -5 0 6 -5 17 -10 25
-5 8 -10 11 -10 5z"/>
<path d="M4066 3575 c-9 -26 -7 -32 5 -12 6 10 9 21 6 23 -2 3 -7 -2 -11 -11z"/>
<path d="M8804 3568 c-4 -7 -14 -24 -22 -38 -14 -24 -13 -24 3 -5 20 24 37 55
31 55 -3 0 -8 -6 -12 -12z"/>
<path d="M1444 3543 c9 -17 21 -35 27 -39 13 -8 -1 21 -26 51 -15 19 -15 18
-1 -12z"/>
<path d="M6181 3565 c0 -5 11 -30 24 -55 13 -25 24 -40 24 -35 0 6 -11 30 -24
55 -13 25 -24 41 -24 35z"/>
<path d="M6580 3550 c6 -11 13 -20 16 -20 2 0 0 9 -6 20 -6 11 -13 20 -16 20
-2 0 0 -9 6 -20z"/>
<path d="M9192 3545 c-17 -37 -14 -45 4 -12 9 16 14 31 11 33 -2 2 -9 -7 -15
-21z"/>
<path d="M1040 3546 c0 -10 70 -146 75 -146 3 0 -11 33 -31 73 -38 74 -44 85
-44 73z"/>
<path d="M4015 3462 c-123 -237 -334 -472 -552 -617 -40 -26 -73 -50 -73 -52
0 -6 12 2 95 58 167 112 321 270 446 458 68 101 124 200 117 206 -2 2 -17 -22
-33 -53z"/>
<path d="M6609 3504 c49 -105 280 -330 415 -405 59 -32 42 -18 -47 40 -120 79
-250 209 -360 361 -12 18 -15 19 -8 4z"/>
<path d="M8706 3426 c-62 -82 -170 -188 -247 -243 -63 -45 -64 -54 -1 -12 61
42 239 220 281 282 48 70 31 57 -33 -27z"/>
<path d="M1530 3420 c17 -22 37 -43 43 -47 6 -4 -6 14 -27 40 -21 26 -40 47
-43 47 -3 0 10 -18 27 -40z"/>
<path d="M9130 3420 c-11 -22 -18 -40 -15 -40 2 0 14 18 25 40 11 22 18 40 15
40 -2 0 -14 -18 -25 -40z"/>
<path d="M3537 3372 c-36 -43 -94 -102 -129 -130 -108 -89 -114 -94 -64 -62
53 35 182 161 235 228 54 69 29 48 -42 -36z"/>
<path d="M6263 3395 c9 -16 23 -39 32 -50 9 -11 7 -2 -6 20 -27 49 -47 72 -26
30z"/>
<path d="M1126 3378 c29 -50 128 -189 146 -204 12 -10 6 1 -14 26 -19 25 -57
78 -83 118 -26 39 -50 72 -52 72 -2 0 -1 -6 3 -12z"/>
<path d="M9066 3313 c-20 -32 -27 -46 -14 -31 26 30 62 88 55 88 -2 0 -21 -26
-41 -57z"/>
<path d="M1640 3295 c35 -36 67 -65 69 -65 3 0 -24 29 -59 65 -35 36 -67 65
-69 65 -3 0 24 -29 59 -65z"/>
<path d="M6370 3234 c23 -34 53 -72 67 -85 14 -13 6 1 -18 32 -24 30 -54 69
-67 85 -13 16 -5 1 18 -32z"/>
<path d="M8994 3213 c-45 -61 -173 -191 -249 -252 -108 -89 -218 -159 -339
-217 -61 -29 -106 -53 -101 -54 6 0 56 22 112 49 179 86 327 195 479 353 81
85 142 158 131 158 -3 0 -17 -17 -33 -37z"/>
<path d="M1729 3217 c15 -19 71 -61 71 -54 0 2 -19 19 -42 37 -24 19 -37 26
-29 17z"/>
<path d="M1817 3148 c15 -17 78 -54 70 -40 -4 5 -24 20 -44 32 -20 12 -32 16
-26 8z"/>
<path d="M3250 3124 c-57 -42 -212 -112 -305 -139 -126 -36 -200 -47 -375 -55
l-155 -7 123 -1 c140 -2 278 16 407 53 100 29 274 110 320 149 39 32 30 32
-15 0z"/>
<path d="M1300 3137 c0 -1 35 -36 78 -77 l77 -75 -75 78 c-69 71 -80 82 -80
74z"/>
<path d="M8332 3100 c-35 -21 -66 -41 -70 -46 -11 -12 111 57 128 72 21 20 12
16 -58 -26z"/>
<path d="M6525 3050 c38 -38 72 -70 74 -70 3 0 -26 32 -64 70 -38 39 -72 70
-74 70 -3 0 26 -31 64 -70z"/>
<path d="M1900 3094 c0 -7 179 -90 210 -98 l25 -6 -25 12 c-153 71 -210 96
-210 92z"/>
<path d="M7090 3064 c0 -7 112 -56 116 -51 2 2 -23 15 -56 30 -33 14 -60 23
-60 21z"/>
<path d="M8220 3040 c-8 -5 -10 -10 -5 -10 6 0 17 5 25 10 8 5 11 10 5 10 -5
0 -17 -5 -25 -10z"/>
<path d="M8180 3020 c-9 -6 -10 -10 -3 -10 6 0 15 5 18 10 8 12 4 12 -15 0z"/>
<path d="M7230 3002 c8 -5 26 -13 40 -16 17 -5 20 -4 10 2 -8 5 -26 13 -40 16
-17 5 -20 4 -10 -2z"/>
<path d="M8125 3000 c-13 -6 -15 -9 -5 -9 8 0 22 4 30 9 18 12 2 12 -25 0z"/>
<path d="M1475 2970 c10 -11 20 -20 23 -20 3 0 -3 9 -13 20 -10 11 -20 20 -23
20 -3 0 3 -9 13 -20z"/>
<path d="M2155 2980 c27 -12 43 -12 25 0 -8 5 -22 9 -30 9 -10 0 -8 -3 5 -9z"/>
<path d="M6620 2966 c24 -30 180 -145 180 -133 0 2 -17 16 -39 30 -21 14 -65
47 -97 73 -33 26 -52 40 -44 30z"/>
<path d="M2220 2960 c14 -4 34 -8 45 -8 16 0 15 2 -5 8 -14 4 -34 8 -45 8 -16
0 -15 -2 5 -8z"/>
<path d="M7348 2963 c7 -3 16 -2 19 1 4 3 -2 6 -13 5 -11 0 -14 -3 -6 -6z"/>
<path d="M7960 2954 l-55 -13 49 5 c27 3 58 9 70 14 31 13 -1 10 -64 -6z"/>
<path d="M7400 2950 c14 -4 36 -8 50 -8 22 0 22 1 -5 8 -16 4 -39 8 -50 8 -16
0 -15 -2 5 -8z"/>
<path d="M1519 2937 c15 -19 71 -61 71 -54 0 2 -19 19 -42 37 -24 19 -37 26
-29 17z"/>
<path d="M2298 2943 c6 -2 18 -2 25 0 6 3 1 5 -13 5 -14 0 -19 -2 -12 -5z"/>
<path d="M2358 2933 c12 -2 30 -2 40 0 9 3 -1 5 -23 4 -22 0 -30 -2 -17 -4z"/>
<path d="M7493 2933 c9 -2 23 -2 30 0 6 3 -1 5 -18 5 -16 0 -22 -2 -12 -5z"/>
<path d="M7853 2933 c9 -2 25 -2 35 0 9 3 1 5 -18 5 -19 0 -27 -2 -17 -5z"/>
<path d="M7622 2923 c37 -2 100 -2 140 0 40 1 10 3 -67 3 -77 0 -110 -1 -73
-3z"/>
<path d="M1600 2876 c0 -15 273 -167 297 -166 5 1 -42 26 -102 58 -61 31 -124
66 -140 78 -41 28 -55 36 -55 30z"/>
<path d="M6810 2826 c0 -3 9 -10 20 -16 11 -6 20 -8 20 -6 0 3 -9 10 -20 16
-11 6 -20 8 -20 6z"/>
<path d="M6870 2789 c25 -17 109 -59 117 -59 4 0 -21 16 -57 35 -62 34 -91 45
-60 24z"/>
<path d="M3360 2780 c-9 -6 -10 -10 -3 -10 6 0 15 5 18 10 8 12 4 12 -15 0z"/>
<path d="M3280 2740 c-30 -16 -51 -29 -47 -30 10 0 107 49 107 55 0 7 1 7 -60
-25z"/>
<path d="M7020 2715 c14 -8 30 -14 35 -14 6 0 -1 6 -15 14 -14 8 -29 14 -35
14 -5 0 1 -6 15 -14z"/>
<path d="M1920 2700 c8 -5 20 -10 25 -10 6 0 3 5 -5 10 -8 5 -19 10 -25 10 -5
0 -3 -5 5 -10z"/>
<path d="M3190 2700 c-8 -5 -10 -10 -5 -10 6 0 17 5 25 10 8 5 11 10 5 10 -5
0 -17 -5 -25 -10z"/>
<path d="M7105 2681 c22 -11 47 -20 55 -20 17 0 -34 23 -71 33 -13 3 -6 -3 16
-13z"/>
<path d="M8250 2680 c-18 -12 -2 -12 25 0 13 6 15 9 5 9 -8 0 -22 -4 -30 -9z"/>
<path d="M2015 2665 c17 -8 37 -14 45 -14 8 0 -1 7 -20 14 -46 18 -64 17 -25
0z"/>
<path d="M3075 2660 c-13 -6 -15 -9 -5 -9 8 0 22 4 30 9 18 12 2 12 -25 0z"/>
<path d="M8155 2650 c-13 -5 -14 -9 -5 -9 8 0 24 4 35 9 13 5 14 9 5 9 -8 0
-24 -4 -35 -9z"/>
<path d="M2088 2643 c7 -3 16 -2 19 1 4 3 -2 6 -13 5 -11 0 -14 -3 -6 -6z"/>
<path d="M3005 2640 c-13 -5 -14 -9 -5 -9 8 0 24 4 35 9 13 5 14 9 5 9 -8 0
-24 -4 -35 -9z"/>
<path d="M7245 2635 c23 -7 61 -15 85 -18 29 -4 18 1 -30 13 -84 22 -116 25
-55 5z"/>
<path d="M2137 2631 c35 -16 198 -43 229 -38 27 4 26 4 -6 6 -30 1 -85 10
-218 36 -24 5 -24 4 -5 -4z"/>
<path d="M8108 2633 c7 -3 16 -2 19 1 4 3 -2 6 -13 5 -11 0 -14 -3 -6 -6z"/>
<path d="M2880 2614 c-36 -7 -83 -14 -105 -15 -28 -1 -33 -3 -15 -6 27 -5 161
14 194 27 29 12 2 10 -74 -6z"/>
<path d="M8045 2624 c-6 -2 -51 -11 -100 -19 -89 -14 -89 -15 -20 -9 66 4 193
32 150 32 -11 0 -25 -2 -30 -4z"/>
<path d="M7393 2603 c9 -2 23 -2 30 0 6 3 -1 5 -18 5 -16 0 -22 -2 -12 -5z"/>
<path d="M7440 2596 c0 -2 18 -6 39 -8 22 -2 37 0 35 4 -5 8 -74 11 -74 4z"/>
<path d="M2483 2583 c48 -2 125 -2 170 0 45 1 6 3 -88 3 -93 0 -130 -2 -82 -3z"/>
<path d="M7608 2583 c45 -2 119 -2 165 0 45 1 8 3 -83 3 -91 0 -128 -2 -82 -3z"/>
</g>
</svg>
