<?xml version="1.0" standalone="no"?>
<!DOCTYPE svg PUBLIC "-//W3C//DTD SVG 20010904//EN"
 "http://www.w3.org/TR/2001/REC-SVG-20010904/DTD/svg10.dtd">
<svg version="1.0" xmlns="http://www.w3.org/2000/svg"
 width="1024.000000pt" height="1024.000000pt" viewBox="0 0 1024.000000 1024.000000"
 preserveAspectRatio="xMidYMid meet">

<g transform="translate(0.000000,1024.000000) scale(0.100000,-0.100000)"
fill="#000000" stroke="none">
<path d="M3241 7889 c-86 -34 -125 -100 -119 -200 4 -73 20 -104 72 -143 25
-19 42 -21 189 -22 l162 -1 -155 6 c-181 7 -210 17 -241 84 -50 111 1 237 108
266 22 6 141 11 277 11 331 0 338 -4 382 -207 14 -64 40 -203 59 -308 19 -104
55 -302 80 -440 25 -137 56 -313 70 -389 14 -77 29 -144 35 -150 6 -6 350 -10
987 -11 674 -1 986 -5 1003 -12 68 -29 116 -128 104 -211 -8 -51 -56 -120 -99
-142 -26 -13 -156 -15 -955 -18 -508 -1 -928 -6 -932 -10 -4 -4 415 -5 930 -2
702 4 942 8 958 17 59 34 114 124 114 189 0 72 -65 166 -132 190 -25 9 -277
13 -1005 13 -535 1 -973 4 -973 8 0 3 -18 106 -40 227 -55 304 -95 527 -136
754 -51 288 -80 412 -101 441 -11 14 -37 36 -59 48 -38 22 -48 23 -299 22
-143 0 -271 -5 -284 -10z"/>
<path d="M3576 7448 c7 -40 26 -154 43 -253 17 -99 42 -241 56 -315 62 -341
96 -544 93 -562 -2 -15 -23 -27 -83 -49 -120 -43 -346 -159 -465 -236 -369
-242 -678 -595 -837 -955 -455 -1032 -82 -2179 889 -2737 246 -141 512 -229
810 -267 382 -48 839 46 1203 248 409 227 732 560 935 963 122 244 187 463
212 720 13 141 7 184 -32 228 -35 40 -86 57 -171 57 -121 -1 -189 -57 -189
-156 0 -70 -35 -274 -64 -374 -200 -691 -863 -1227 -1580 -1279 -481 -35 -954
148 -1309 506 -251 253 -402 531 -474 870 -23 113 -26 151 -27 323 0 164 3
213 22 309 98 490 391 922 820 1208 87 58 291 163 377 194 28 10 41 18 30 19
-26 0 -251 -105 -340 -159 -241 -147 -468 -363 -624 -595 -350 -519 -397
-1175 -124 -1720 246 -492 712 -844 1253 -947 219 -42 483 -28 715 37 542 152
1002 553 1207 1051 74 180 128 405 128 537 0 68 21 113 67 143 21 14 47 18
118 18 113 -1 148 -17 177 -82 18 -41 20 -58 13 -142 -21 -293 -124 -621 -274
-877 -211 -359 -551 -679 -920 -868 -266 -136 -492 -200 -806 -227 -489 -44
-1055 148 -1476 499 -415 347 -686 862 -739 1401 -46 471 82 987 341 1379 116
175 301 380 459 508 206 168 483 326 700 399 59 21 65 25 68 53 2 17 -10 106
-27 199 -16 92 -55 312 -86 488 -83 474 -88 499 -95 508 -4 5 -2 -25 6 -65z"/>
<path d="M4261 5940 c-2 -25 112 -710 117 -706 2 3 -3 49 -12 103 -97 602
-103 637 -105 603z"/>
<path d="M3861 5895 c-1 -14 96 -575 144 -834 28 -151 53 -203 110 -227 29
-12 203 -14 1142 -12 l1108 3 -1115 5 c-1044 5 -1118 6 -1143 23 -32 21 -54
53 -68 98 -8 28 -128 705 -154 869 -7 45 -23 94 -24 75z"/>
<path d="M5405 5220 c561 -4 1034 -10 1050 -13 l30 -7 -30 12 c-23 9 -276 12
-1050 13 l-1020 1 1020 -6z"/>
<path d="M6537 5179 c88 -34 89 -35 325 -459 39 -69 85 -150 103 -180 17 -30
55 -95 82 -145 28 -49 90 -160 138 -245 270 -478 349 -616 358 -625 15 -16
-28 66 -110 208 -42 73 -166 292 -276 487 -384 684 -500 885 -521 909 -22 25
-111 71 -136 70 -8 0 9 -9 37 -20z"/>
<path d="M6370 4813 c0 -7 52 -106 116 -220 64 -114 213 -381 331 -593 118
-212 223 -398 233 -415 10 -16 52 -92 93 -167 l74 -137 -34 -61 c-49 -87 -74
-162 -83 -254 -20 -200 56 -394 214 -549 236 -231 565 -270 851 -102 71 41
192 161 245 241 69 105 95 200 95 349 0 105 -3 129 -27 193 -74 205 -236 365
-437 435 -72 25 -104 31 -196 33 l-110 2 105 -7 c58 -5 132 -16 164 -25 153
-45 288 -145 387 -286 127 -182 142 -430 38 -640 -34 -68 -60 -102 -128 -170
-100 -98 -166 -140 -288 -182 -256 -89 -523 -15 -722 198 -129 138 -188 298
-179 483 6 110 32 196 85 284 l34 57 -67 123 c-37 67 -93 167 -125 222 -31 55
-105 188 -164 295 -59 107 -124 224 -145 260 -52 90 -170 301 -215 385 -88
161 -145 259 -145 248z"/>
<path d="M7645 3543 c-27 -8 -54 -19 -60 -25 -7 -8 -4 -9 10 -3 11 4 47 16 80
26 33 10 51 18 40 18 -11 0 -42 -7 -70 -16z"/>
<path d="M7725 3167 c-135 -45 -215 -151 -215 -285 0 -66 30 -138 79 -194 34
-39 122 -88 155 -88 12 1 1 8 -24 17 -245 85 -271 408 -43 519 46 23 70 28
124 28 253 -3 372 -300 192 -478 -45 -45 -105 -75 -150 -76 -18 0 -33 -5 -33
-11 0 -14 49 -3 113 23 60 26 126 99 150 164 65 184 -56 370 -254 389 -32 3
-70 -1 -94 -8z"/>
</g>
</svg>
