<?xml version="1.0" standalone="no"?>
<!DOCTYPE svg PUBLIC "-//W3C//DTD SVG 20010904//EN"
 "http://www.w3.org/TR/2001/REC-SVG-20010904/DTD/svg10.dtd">
<svg version="1.0" xmlns="http://www.w3.org/2000/svg"
 width="1024.000000pt" height="1024.000000pt" viewBox="0 0 1024.000000 1024.000000"
 preserveAspectRatio="xMidYMid meet">

<g transform="translate(0.000000,1024.000000) scale(0.100000,-0.100000)"
fill="#000000" stroke="none">
<path d="M5075 9211 c-20 -12 -74 -91 -169 -247 -77 -126 -218 -355 -315 -509
-194 -311 -201 -329 -148 -382 l27 -28 220 -3 220 -3 0 -2205 0 -2206 -47 34
c-27 19 -95 67 -153 108 -611 428 -814 619 -899 845 -44 115 -51 188 -51 496
0 208 -3 289 -11 289 -18 0 -5 -586 15 -674 56 -242 191 -411 541 -675 127
-96 383 -281 538 -388 42 -30 77 -56 77 -58 0 -9 -40 0 -41 10 0 11 -203 155
-219 155 -5 0 -10 3 -10 8 0 4 -41 36 -91 72 -116 83 -378 280 -421 317 -18
15 -64 58 -103 94 -41 39 -76 64 -85 62 -11 -3 -12 -2 -3 4 10 7 5 18 -20 45
-17 19 -38 47 -46 61 -8 15 -18 24 -23 21 -5 -3 -7 -2 -6 3 1 4 -14 42 -35 83
-70 142 -79 196 -84 545 l-6 311 79 46 c146 85 255 225 290 375 18 75 14 247
-5 266 -6 6 -11 20 -11 30 0 38 -66 143 -130 208 -69 70 -171 128 -260 148
-58 14 -214 14 -265 1 -77 -20 -125 -42 -119 -52 4 -7 2 -8 -4 -4 -17 10 -92
-45 -150 -110 -54 -60 -97 -135 -112 -193 -5 -20 -14 -54 -19 -76 -25 -98 -2
-246 57 -358 44 -86 136 -180 225 -231 l67 -39 1 -256 c0 -141 2 -263 3 -271
2 -8 6 -46 10 -85 10 -94 50 -251 87 -340 41 -98 86 -172 172 -278 80 -99 292
-291 309 -281 6 4 8 3 5 -3 -7 -11 81 -82 378 -303 99 -73 223 -165 275 -204
130 -97 231 -195 264 -257 48 -87 56 -136 56 -351 l0 -198 -27 -6 c-167 -37
-298 -118 -403 -250 -114 -143 -163 -290 -163 -489 0 -231 66 -390 228 -550
115 -115 258 -187 420 -214 84 -14 258 -7 335 14 94 24 216 85 283 139 32 27
60 46 62 44 3 -2 -15 -20 -38 -39 -129 -107 -290 -169 -462 -176 -342 -16
-629 152 -770 449 -45 95 -63 166 -71 288 -17 259 87 500 287 663 52 42 215
121 272 131 l37 7 0 187 c0 341 -25 384 -395 657 -199 147 -372 277 -462 346
-407 313 -577 525 -652 814 -38 145 -44 197 -50 505 l-6 304 -36 19 c-309 163
-412 544 -223 829 72 109 162 177 289 220 70 24 228 28 310 9 168 -40 323
-176 392 -344 35 -83 43 -233 19 -327 -42 -161 -148 -298 -297 -380 -30 -16
-47 -30 -39 -30 25 0 141 81 201 141 115 115 181 309 159 465 -33 244 -215
440 -452 488 -203 42 -375 -9 -519 -153 -181 -181 -221 -434 -106 -671 40 -82
158 -203 239 -245 l58 -30 0 -247 c0 -395 26 -552 125 -753 66 -134 130 -221
254 -344 118 -116 216 -196 551 -446 429 -321 446 -334 503 -394 106 -111 127
-183 127 -436 l0 -175 -27 -5 c-65 -14 -170 -61 -238 -106 -261 -175 -384
-496 -316 -824 76 -367 400 -625 787 -625 122 0 195 13 296 51 107 42 210 112
293 200 88 95 129 163 173 292 30 88 36 118 40 223 3 92 0 140 -13 200 -61
276 -272 504 -542 584 l-43 13 0 594 c0 721 5 762 102 911 53 82 137 153 398
337 543 383 795 635 959 962 108 215 150 398 158 686 l6 197 129 0 128 0 38
34 37 34 3 537 c3 595 4 584 -63 625 -31 19 -49 20 -476 20 -412 0 -447 -1
-479 -18 -71 -38 -70 -26 -70 -605 0 -571 0 -569 62 -607 29 -17 50 -20 162
-20 l129 0 -6 -182 c-8 -245 -29 -343 -113 -513 -141 -288 -455 -580 -977
-909 -59 -38 -110 -73 -114 -79 -4 -6 -1 -7 8 -1 244 150 421 271 584 400 61
48 101 77 90 64 -53 -60 -368 -288 -565 -409 -47 -29 -95 -59 -107 -68 l-23
-15 0 1731 0 1731 221 0 221 0 34 34 c23 23 34 43 34 63 0 19 -51 113 -156
288 -86 143 -226 378 -312 522 -104 176 -163 265 -179 272 -35 16 -74 13 -108
-8z m119 -13 c8 -8 65 -100 127 -204 137 -232 226 -379 357 -595 55 -92 110
-185 122 -209 28 -54 20 -94 -23 -121 -29 -17 -53 -19 -249 -19 l-218 0 -3
-1737 -2 -1738 -3 1743 -2 1742 73 1 c39 0 140 0 222 -1 142 -1 153 0 179 21
25 19 28 27 24 64 -5 41 -11 51 -303 535 -65 107 -127 211 -138 230 -31 55
-43 70 -51 63 -4 -4 -5 -1 -2 7 4 8 -22 59 -57 114 -49 79 -68 101 -92 108
-51 14 -80 -7 -131 -91 -63 -106 -262 -426 -400 -646 -197 -313 -209 -340
-163 -381 19 -17 40 -19 238 -21 119 -1 219 -2 224 -3 4 0 6 -1000 5 -2222
l-3 -2223 -2 2218 -3 2217 -211 0 c-228 0 -255 5 -277 54 -7 16 -8 35 -2 54 4
17 86 155 182 308 96 154 234 377 308 497 73 120 145 227 159 239 29 23 90 21
115 -4z m2026 -1693 c50 -44 50 -50 50 -595 0 -560 0 -564 -59 -594 -22 -12
-61 -16 -156 -16 l-125 0 0 -135 c0 -446 -117 -771 -395 -1100 -148 -175 -343
-342 -674 -576 -409 -291 -472 -355 -528 -546 -15 -51 -17 -130 -21 -704 l-3
-645 58 -18 c243 -76 423 -252 506 -495 23 -69 30 -109 34 -202 9 -184 -33
-335 -131 -483 -53 -80 -106 -139 -106 -119 0 5 10 18 21 29 68 61 136 181
176 311 23 76 27 106 27 223 1 115 -3 146 -23 210 -80 256 -256 436 -499 510
l-72 22 0 628 c0 701 1 712 67 849 44 93 154 206 288 297 490 334 757 560 934
793 162 213 267 452 306 696 11 71 23 284 25 448 0 15 13 17 128 17 82 0 136
5 152 13 55 28 55 32 55 547 1 500 -2 583 -15 575 -5 -3 -12 0 -16 6 -4 8 -3
9 4 5 22 -13 12 10 -14 35 l-26 24 -416 3 c-460 4 -508 0 -539 -46 -17 -25
-18 -62 -21 -545 -2 -466 -1 -521 14 -553 9 -19 26 -40 38 -47 11 -6 79 -15
151 -18 l130 -6 -137 1 -138 1 -32 33 -33 32 -3 533 c-2 520 -2 533 18 565 38
62 38 62 531 59 431 -2 448 -3 469 -22z m-655 -1400 c-7 -164 -12 -201 -36
-298 -56 -224 -186 -427 -412 -646 -117 -113 -95 -80 30 45 176 177 291 352
348 527 39 123 55 235 56 406 0 112 3 148 10 126 5 -16 7 -88 4 -160z"/>
</g>
</svg>
