<?xml version="1.0" standalone="no"?>
<!DOCTYPE svg PUBLIC "-//W3C//DTD SVG 20010904//EN"
 "http://www.w3.org/TR/2001/REC-SVG-20010904/DTD/svg10.dtd">
<svg version="1.0" xmlns="http://www.w3.org/2000/svg"
 width="1024.000000pt" height="1024.000000pt" viewBox="0 0 1024.000000 1024.000000"
 preserveAspectRatio="xMidYMid meet">

<g transform="translate(0.000000,1024.000000) scale(0.100000,-0.100000)"
fill="#000000" stroke="none">
<path d="M5009 8893 c-35 -19 -64 -43 -84 -71 l-30 -44 -3 -444 c-1 -244 -5
-444 -8 -444 -6 0 -137 110 -368 308 -98 85 -197 163 -220 173 -86 39 -195 18
-264 -52 -45 -44 -60 -77 -68 -142 -9 -77 9 -121 80 -196 59 -61 488 -457 728
-672 l116 -104 1 -560 0 -560 -201 -115 c-111 -63 -229 -130 -262 -147 l-60
-32 -86 46 c-47 25 -128 69 -180 98 -181 98 -685 375 -698 383 -7 5 -60 228
-123 523 -60 283 -116 537 -124 564 -25 89 -119 163 -216 173 -91 9 -213 -75
-238 -164 -22 -78 -17 -104 94 -583 19 -85 34 -155 32 -157 -1 -2 -144 78
-317 178 -375 214 -422 238 -476 238 -105 0 -198 -70 -228 -171 -20 -66 -20
-84 0 -142 28 -83 70 -115 359 -280 149 -84 303 -171 342 -193 40 -21 73 -41
73 -44 0 -3 -148 -54 -329 -113 -224 -73 -342 -117 -369 -137 -111 -80 -116
-257 -10 -356 53 -51 95 -68 168 -67 58 0 119 18 565 173 275 95 511 172 525
171 13 0 115 -52 225 -115 110 -63 218 -124 240 -136 22 -12 101 -57 175 -98
74 -42 189 -106 255 -143 l120 -66 3 -261 2 -261 -42 -24 c-452 -259 -889
-504 -934 -523 -30 -13 -60 -4 -570 166 -407 136 -551 180 -588 180 -139 0
-246 -135 -216 -273 13 -62 48 -116 98 -150 34 -23 159 -69 545 -199 l148 -50
-53 -28 c-193 -102 -649 -367 -676 -393 -33 -31 -72 -119 -72 -161 0 -12 7
-46 16 -75 38 -129 183 -202 311 -157 34 12 451 248 632 357 34 22 66 39 70
39 4 0 -12 -87 -36 -192 -100 -439 -107 -486 -80 -551 37 -88 129 -147 230
-147 70 0 120 20 168 66 61 60 52 25 229 848 71 325 59 296 132 338 35 19 243
138 463 263 220 125 412 236 427 246 14 11 32 19 39 19 6 0 109 -57 228 -126
119 -70 228 -134 243 -143 l28 -16 0 -572 0 -571 -397 -358 c-502 -452 -498
-448 -519 -520 -36 -124 18 -241 135 -290 45 -19 162 -14 206 8 17 9 148 120
293 247 145 127 267 231 272 231 6 0 10 -146 10 -383 l0 -383 26 -53 c84 -167
334 -169 416 -3 23 46 23 52 26 434 2 214 6 388 9 388 3 0 57 -46 120 -102
261 -234 410 -361 438 -376 16 -8 60 -17 97 -20 59 -4 75 -1 122 22 91 45 136
117 136 218 0 94 -21 118 -382 438 -183 162 -379 337 -435 388 l-103 94 0 587
0 587 238 137 c131 75 245 137 252 137 7 0 235 -127 506 -281 461 -264 493
-284 499 -313 4 -17 13 -58 21 -91 7 -33 52 -238 99 -455 115 -536 109 -514
164 -571 54 -55 106 -73 193 -67 108 8 206 96 215 195 3 35 -14 133 -67 366
-39 175 -70 323 -68 328 2 6 15 2 28 -8 41 -31 652 -376 690 -390 82 -29 201
-2 257 58 56 62 80 180 50 252 -20 47 -81 97 -193 157 -168 90 -527 291 -567
317 l-39 25 139 47 c497 172 554 194 598 233 57 50 79 107 73 191 -7 120 -87
199 -207 205 -63 3 -90 -5 -604 -177 -296 -100 -546 -181 -556 -181 -17 0
-240 121 -581 315 -85 48 -184 104 -220 123 -36 20 -96 54 -135 77 l-70 41 -3
255 c-2 234 -1 257 15 271 10 8 110 67 223 130 113 63 329 186 481 272 182
103 286 156 305 156 17 0 261 -76 543 -170 557 -184 582 -190 666 -151 52 24
103 75 126 126 46 101 0 243 -95 292 -17 9 -167 60 -335 115 -169 54 -316 103
-329 108 -22 9 -17 14 60 54 247 131 618 348 653 382 46 45 65 96 65 175 -1
130 -102 229 -234 229 -57 0 -78 -9 -251 -107 -38 -22 -164 -93 -280 -157
-115 -65 -228 -129 -249 -143 l-39 -25 7 23 c3 13 29 121 56 239 27 118 59
258 71 311 26 115 21 166 -21 233 -74 117 -225 148 -342 71 -70 -46 -82 -81
-178 -517 -113 -509 -150 -669 -161 -690 -5 -9 -77 -54 -161 -101 -84 -46
-207 -115 -273 -152 -259 -146 -479 -267 -502 -276 -21 -8 -57 9 -266 127
-133 75 -247 141 -254 148 -13 12 -15 167 -13 811 l1 330 111 100 c62 55 195
177 298 270 102 94 248 226 323 295 100 91 144 139 162 174 78 157 -39 336
-220 336 -70 0 -108 -16 -171 -71 -28 -24 -74 -64 -104 -89 -29 -25 -131 -111
-226 -192 -95 -82 -174 -148 -176 -148 -1 0 -3 192 -3 428 0 419 0 428 -22
467 -67 125 -201 170 -324 108z m164 6 c52 -14 41 -21 -16 -10 -33 6 -47 5
-47 -3 0 -6 -4 -5 -9 3 -6 9 -11 10 -15 2 -4 -6 -11 -9 -16 -6 -13 8 -72 -24
-65 -35 3 -6 -1 -7 -9 -4 -9 3 -16 1 -16 -5 0 -6 -7 -11 -16 -11 -19 0 -5 15
40 44 56 35 106 43 169 25z m109 -66 c58 -60 58 -65 56 -515 l-2 -413 -6 420
c-3 231 -9 428 -14 438 -4 9 -12 17 -17 17 -6 0 -6 -7 0 -18 6 -11 6 -24 0
-33 -9 -15 -11 -10 -13 56 -2 39 -14 58 -34 50 -9 -3 -13 -3 -9 1 4 4 -1 16
-10 27 -17 19 -17 20 2 9 11 -6 32 -23 47 -39z m-322 -18 c0 -3 -10 -20 -22
-36 -22 -29 -23 -39 -23 -234 -1 -112 -4 -208 -9 -212 -4 -4 -6 89 -4 207 3
183 6 220 21 248 15 27 37 43 37 27z m-690 -450 c19 -7 34 -18 32 -25 -2 -8 3
-10 13 -7 9 4 30 -7 52 -26 21 -18 90 -77 153 -132 63 -56 150 -129 192 -164
43 -35 75 -68 71 -74 -3 -5 -1 -7 4 -4 6 4 28 -9 49 -29 l39 -36 -36 26 c-20
14 -41 26 -48 26 -7 0 -19 7 -27 15 -8 8 -21 12 -29 9 -8 -4 -15 -1 -15 5 0 6
3 10 8 9 4 -2 7 2 7 7 0 6 -3 9 -7 7 -5 -1 -8 5 -8 13 0 15 -4 17 -53 18 -25
1 -28 4 -25 28 5 30 -22 54 -59 52 -18 0 -23 5 -23 23 0 25 -34 54 -62 54 -12
0 -18 8 -18 21 0 13 -4 18 -12 13 -6 -4 -8 -3 -5 3 7 12 -34 43 -56 43 -8 0
-21 8 -28 18 -13 15 -12 16 4 3 21 -16 23 1 2 19 -8 6 -20 8 -27 4 -7 -4 -10
-4 -6 1 12 13 -12 35 -38 35 -16 0 -24 6 -24 18 0 13 -2 14 -9 3 -7 -10 -12
-11 -27 -1 -16 10 -16 11 -1 6 9 -3 17 -2 17 3 0 13 -64 23 -95 15 -19 -5 -23
-9 -15 -19 14 -17 5 -21 -45 -20 -37 0 -86 -29 -78 -46 1 -4 -4 -9 -12 -13
-24 -9 -17 8 18 41 66 64 152 86 227 58z m1831 5 c47 -13 126 -83 144 -127 17
-41 20 -141 4 -163 -8 -11 -9 4 -5 55 4 57 2 78 -14 110 -12 25 -18 31 -14 15
4 -21 3 -22 -6 -7 -6 9 -8 21 -5 27 5 8 -40 38 -62 42 -5 0 -13 8 -19 17 -10
13 -14 13 -28 2 -13 -11 -16 -11 -16 2 0 17 -21 27 -55 27 -26 0 -41 -15 -25
-25 12 -7 4 -25 -11 -25 -5 0 -9 10 -10 23 l0 22 -9 -23 c-7 -17 -16 -22 -37
-20 -18 2 -27 -1 -26 -9 2 -7 -4 -10 -13 -6 -8 3 -14 1 -12 -5 2 -5 0 -9 -3
-8 -13 2 -48 -37 -42 -47 3 -6 1 -7 -5 -3 -7 4 -29 -7 -51 -26 -26 -22 -36
-35 -28 -40 9 -6 9 -8 0 -9 -7 -1 -16 -2 -21 -3 -4 0 -23 -13 -42 -28 -29 -23
-32 -28 -15 -29 11 0 14 -3 7 -6 -6 -2 -10 -10 -6 -16 3 -7 -2 -3 -10 7 -14
18 -21 15 -17 -7 0 -4 -2 -6 -6 -5 -12 4 -48 -25 -49 -39 -2 -29 -5 -32 -19
-27 -8 4 -15 1 -15 -5 0 -7 -6 -11 -14 -9 -8 2 -44 -23 -81 -56 -36 -32 -68
-57 -70 -55 -6 8 165 150 174 144 5 -3 13 0 17 6 5 8 2 10 -7 5 -20 -11 75 75
226 205 55 47 111 92 124 99 57 30 112 36 172 20z m19 -34 c0 -3 -4 -8 -10
-11 -5 -3 -10 -1 -10 4 0 6 5 11 10 11 6 0 10 -2 10 -4z m-1205 -176 c0 -88
-3 -160 -7 -160 -5 0 -8 72 -8 160 0 88 3 160 8 160 4 0 7 -72 7 -160z m-900
76 c-21 -15 -36 -136 -17 -136 6 0 9 -6 6 -14 -7 -18 33 -74 58 -82 10 -3 16
-9 14 -13 -8 -12 56 -68 79 -70 11 -1 31 -2 45 -2 17 -1 19 -3 7 -6 -9 -2 -15
-9 -12 -14 4 -5 1 -9 -5 -9 -6 0 -8 -5 -4 -11 4 -8 9 -8 17 0 16 16 34 14 34
-4 0 -8 -4 -15 -9 -15 -4 0 -8 5 -8 11 0 5 -5 7 -10 4 -8 -5 -7 -11 1 -21 6
-7 15 -11 20 -8 5 3 9 -2 9 -10 0 -19 11 -21 28 -4 9 9 13 7 18 -6 4 -11 1
-22 -7 -27 -8 -5 -9 -9 -4 -9 6 0 17 6 24 13 9 8 12 8 7 0 -3 -6 -3 -13 1 -16
5 -2 2 -2 -4 -1 -7 2 -13 -1 -13 -6 0 -6 5 -10 11 -10 6 0 23 -9 39 -20 15
-11 30 -17 33 -14 3 3 8 0 12 -6 3 -6 2 -9 -3 -8 -6 2 -10 -1 -9 -7 0 -13 138
-137 145 -130 8 8 42 -26 42 -42 0 -8 -4 -13 -9 -11 -11 4 -319 287 -448 412
-51 49 -99 103 -108 121 -29 62 -15 185 22 185 15 0 15 -1 -2 -14z m2215 -195
c-5 -11 -15 -23 -21 -27 -6 -3 -3 5 6 20 20 30 30 35 15 7z m-140 -142 c-58
-53 -113 -97 -122 -96 -9 1 -14 5 -12 9 3 5 9 6 13 3 13 -7 92 65 85 77 -4 6
-2 8 4 5 11 -8 102 72 102 89 0 6 8 11 17 11 10 0 -26 -40 -87 -98z m-1170 57
c0 -19 -3 -37 -7 -39 -5 -3 -8 12 -8 34 0 21 3 39 8 39 4 0 7 -15 7 -34z m-7
-71 c-3 -9 -8 -14 -10 -11 -3 3 -2 9 2 15 9 16 15 13 8 -4z m-12 -29 c15 9 10
-2 -6 -16 -13 -10 -15 -9 -14 11 0 13 3 18 6 11 2 -6 9 -10 14 -6z m1049 -79
c0 -2 -19 -21 -42 -42 -23 -22 -37 -33 -30 -24 6 9 8 20 4 24 -4 5 -2 5 4 2 6
-4 22 5 34 18 22 23 30 29 30 22z m-99 -90 c-10 -9 -11 -8 -5 6 3 10 9 15 12
12 3 -3 0 -11 -7 -18z m-27 -15 c3 -5 -11 -24 -30 -43 -29 -27 -35 -30 -32
-14 4 27 30 53 47 47 9 -4 12 -1 7 6 -4 7 -5 12 -2 12 3 0 7 -4 10 -8z m-79
-92 c-3 -5 -12 -10 -18 -10 -7 0 -6 4 3 10 19 12 23 12 15 0z m-2730 -39 c58
-27 112 -88 125 -141 26 -103 50 -225 47 -234 -2 -6 -9 18 -17 52 -7 34 -16
59 -20 57 -5 -3 -13 9 -19 27 -13 38 -13 38 -1 38 6 0 10 -10 10 -22 0 -12 3
-19 6 -15 10 9 -5 59 -15 52 -5 -3 -8 7 -6 22 4 34 -12 76 -25 68 -5 -3 -7 0
-4 8 3 8 -3 20 -12 28 -16 13 -17 12 -12 -8 5 -19 4 -20 -13 -10 -19 12 -26
28 -11 26 24 -4 24 3 0 19 -15 10 -41 17 -58 16 -20 -1 -30 3 -30 12 0 10 -12
14 -39 14 -46 0 -73 -9 -65 -21 3 -5 -2 -6 -11 -3 -20 8 -88 -44 -81 -62 3 -7
-3 -18 -14 -24 -29 -16 -40 -87 -25 -171 23 -129 44 -199 60 -199 8 0 15 -7
15 -15 0 -8 -8 -15 -18 -15 -15 0 -22 16 -36 83 -10 45 -25 108 -32 139 -30
121 22 237 126 282 48 21 127 19 175 -3z m2695 13 c0 -8 -19 -13 -24 -6 -3 5
1 9 9 9 8 0 15 -2 15 -3z m1703 -17 c84 -56 136 -155 118 -227 -9 -33 -9 -32
-10 20 -1 57 -28 132 -52 145 -11 6 -12 5 -1 -6 16 -18 16 -34 -1 -20 -8 6
-17 7 -22 3 -4 -4 -6 5 -3 20 4 21 0 31 -18 43 -13 8 -30 12 -40 8 -10 -4 -20
0 -26 11 -7 13 -21 16 -61 15 -67 -3 -84 -8 -65 -21 9 -6 6 -7 -10 -3 -26 7
-55 -11 -45 -29 3 -6 2 -8 -2 -3 -5 4 -20 -3 -33 -15 l-25 -23 15 23 c17 26
48 50 88 69 33 16 164 9 193 -10z m-1733 -12 c0 -10 -195 -175 -208 -175 -7 0
-11 -4 -8 -9 3 -5 -24 -36 -59 -69 l-65 -60 0 -571 0 -570 68 -37 c97 -54 133
-80 124 -89 -4 -5 -2 -5 5 -1 10 5 73 -18 73 -27 0 -1 -20 -2 -45 -2 -39 0
-45 3 -45 22 0 22 -57 63 -91 66 -10 1 -15 5 -12 11 4 5 -1 7 -10 3 -10 -4
-20 0 -26 11 -6 9 -11 13 -11 8 0 -5 -9 3 -20 17 -19 24 -20 40 -20 595 0 494
2 571 15 582 8 7 15 21 15 31 0 11 7 19 18 19 25 1 63 33 64 56 1 12 10 21 21
21 25 2 47 22 59 52 7 21 11 23 18 11 9 -14 14 -7 11 13 -1 5 2 6 7 3 4 -2 32
17 62 44 57 51 60 53 60 45z m-1066 -17 c-5 -7 -2 -9 9 -5 18 7 30 -16 16 -30
-6 -6 6 -17 31 -31 23 -12 38 -18 35 -13 -2 5 2 12 10 15 12 4 14 0 9 -19 -8
-32 34 -76 65 -68 21 5 29 -11 11 -22 -6 -3 5 -18 22 -33 36 -30 44 -37 73
-71 18 -21 20 -38 21 -162 0 -76 -3 -139 -8 -139 -5 0 -8 63 -7 140 2 128 1
142 -17 158 -96 85 -228 205 -267 242 -46 44 -47 46 -22 48 18 1 24 -2 19 -10z
m2487 -105 c-12 -20 -14 -14 -5 12 4 9 9 14 11 11 3 -2 0 -13 -6 -23z m0 -37
c14 8 10 -6 -6 -22 -13 -14 -15 -12 -14 13 0 15 3 22 6 15 2 -6 9 -10 14 -6z
m-32 -110 c-7 -31 -14 -54 -16 -52 -3 3 1 30 8 60 7 31 14 54 16 52 3 -3 -1
-30 -8 -60z m448 -8 c-3 -8 -6 -5 -6 6 -1 11 2 17 5 13 3 -3 4 -12 1 -19z
m-62 -280 c-31 -139 -61 -257 -66 -262 -6 -6 -9 -5 -9 3 0 7 -4 9 -10 6 -6 -3
-7 1 -3 10 5 13 7 14 14 3 5 -7 9 -9 9 -5 0 5 12 59 26 120 15 62 26 135 26
162 0 30 2 43 7 32 4 -13 14 16 30 87 13 59 26 104 28 102 3 -3 -21 -119 -52
-258z m-409 176 c-4 -20 -10 -34 -12 -31 -3 3 -2 21 2 41 3 21 9 35 11 32 3
-3 2 -21 -1 -42z m-3822 -122 c30 -139 30 -142 15 -142 -6 0 -9 7 -5 15 7 19
1 19 -17 1 -12 -13 -14 -10 -15 15 0 16 4 27 9 24 14 -9 24 24 11 37 -8 8 -9
4 -5 -12 4 -16 3 -21 -5 -16 -7 4 -11 30 -10 64 1 31 -2 77 -6 102 -16 89 2
33 28 -88z m3800 34 c-3 -21 -8 -35 -11 -32 -2 2 -1 20 3 40 3 21 8 35 11 32
2 -2 1 -20 -3 -40z m1247 14 c11 0 18 -4 15 -9 -4 -5 2 -7 11 -5 30 8 110 -73
128 -129 19 -61 19 -92 -1 -151 -23 -66 -61 -100 -204 -181 -69 -38 -149 -84
-180 -101 -30 -17 -84 -48 -120 -69 -111 -64 -273 -146 -278 -141 -3 3 3 8 12
12 9 3 13 11 10 16 -4 6 2 8 12 6 20 -5 76 24 106 54 10 10 24 15 34 11 13 -5
15 -3 9 7 -5 8 -4 11 2 7 15 -10 105 42 97 55 -4 6 -2 8 4 5 15 -10 43 3 35
16 -3 6 -1 7 5 3 14 -9 52 15 52 32 0 8 -5 10 -12 6 -10 -5 -10 -3 0 7 11 12
14 12 21 0 7 -11 14 -9 33 11 12 14 32 24 42 22 24 -3 119 50 108 61 -4 4 -2
5 5 1 6 -3 16 2 22 11 6 10 11 15 11 10 0 -11 80 32 80 44 0 6 4 8 9 5 5 -3
11 4 14 16 4 12 9 19 13 15 14 -14 34 16 34 50 0 19 4 32 9 29 5 -3 11 4 15
17 9 36 7 57 -6 55 -14 -3 -14 4 -3 41 5 16 4 21 -4 17 -7 -5 -9 -1 -5 9 5 11
0 18 -14 22 -11 3 -23 11 -26 18 -3 9 0 12 10 8 28 -10 14 7 -26 32 -22 14
-51 25 -65 25 -14 0 -25 6 -26 13 0 10 -2 10 -6 0 -2 -7 -9 -13 -14 -13 -6 0
-7 6 -3 13 6 10 4 10 -7 0 -7 -7 -36 -13 -63 -13 -51 0 -114 -28 -99 -44 4 -4
-1 -4 -11 0 -20 8 -17 11 49 46 41 22 109 38 133 32 8 -2 23 -4 33 -4z m-6086
-54 c55 -29 177 -96 270 -150 94 -54 189 -110 213 -123 24 -14 42 -26 40 -28
-9 -8 -68 9 -68 20 0 20 -102 73 -133 70 -25 -3 -27 -1 -15 13 7 9 9 14 4 10
-4 -3 -17 3 -28 14 -11 11 -26 17 -34 14 -9 -3 -12 -1 -9 4 7 11 -35 31 -47
23 -5 -2 -8 1 -8 7 0 6 -5 8 -10 5 -6 -4 -9 -1 -8 6 2 6 -3 14 -11 17 -9 3
-11 0 -6 -8 5 -9 4 -11 -4 -6 -6 4 -9 11 -7 15 6 9 -57 41 -80 41 -9 0 -12 5
-8 13 5 9 4 9 -6 0 -17 -16 -40 -5 -40 19 0 10 -5 16 -10 13 -6 -4 -8 -11 -5
-16 4 -5 1 -9 -5 -9 -7 0 -10 7 -6 15 4 10 -5 22 -23 33 -52 31 -266 14 -245
-20 3 -5 0 -7 -8 -6 -7 2 -12 -3 -10 -9 1 -7 -3 -13 -9 -13 -5 0 -7 -6 -3 -12
4 -7 4 -10 -1 -6 -4 4 -14 0 -22 -10 -11 -14 -11 -11 1 13 32 67 99 104 186
103 46 0 70 -8 155 -52z m609 -76 c4 -30 3 -36 -3 -20 -12 37 -22 109 -12 85
5 -11 11 -40 15 -65z m-874 55 c0 -8 -4 -15 -10 -15 -5 0 -7 7 -4 15 4 8 8 15
10 15 2 0 4 -7 4 -15z m5087 -17 c-3 -7 -5 -2 -5 12 0 14 2 19 5 13 2 -7 2
-19 0 -25z m1020 0 c1 -13 -1 -18 -5 -11 -5 7 -23 3 -61 -16 -33 -17 -50 -31
-42 -35 21 -13 1 -27 -22 -14 -19 10 -20 9 -9 -4 10 -13 9 -15 -10 -14 -31 3
-139 -51 -135 -67 1 -6 -7 -11 -17 -10 -11 1 -43 -12 -73 -29 -29 -16 -53 -28
-53 -25 0 8 273 160 287 160 7 0 13 4 13 8 0 5 100 68 125 79 1 0 2 -10 2 -22z
m-1030 -40 c-3 -8 -6 -5 -6 6 -1 11 2 17 5 13 3 -3 4 -12 1 -19z m-5158 -51
c1 -5 -3 -5 -9 -2 -6 4 -10 -10 -10 -34 0 -28 5 -43 18 -50 9 -6 12 -11 5 -11
-14 0 33 -100 48 -100 5 0 8 4 4 9 -3 5 -1 12 4 15 5 4 12 2 15 -3 4 -5 2 -12
-4 -16 -6 -4 -8 -11 -4 -16 9 -15 78 -47 92 -42 7 3 11 -1 10 -9 -2 -7 5 -12
14 -12 10 1 15 -2 12 -7 -5 -8 10 -13 29 -10 5 1 6 -2 3 -7 -7 -11 37 -32 68
-32 16 0 26 -7 29 -21 4 -14 11 -20 21 -16 9 4 15 1 13 -6 -1 -7 5 -12 13 -12
8 0 32 -13 52 -29 21 -16 42 -25 49 -20 8 4 9 3 5 -4 -6 -11 70 -58 87 -54 4
1 7 -2 7 -8 0 -5 3 -9 8 -9 4 1 10 0 15 -1 15 -5 27 -8 45 -9 13 -1 14 -3 3
-10 -10 -7 -4 -12 22 -22 20 -7 34 -16 31 -21 -6 -9 -1 -12 -372 199 -185 105
-281 166 -301 190 -44 53 -62 136 -44 202 6 23 7 23 14 5 4 -10 8 -23 8 -27z
m3076 -349 c-3 -504 -1 -476 -24 -483 -12 -4 -17 -13 -15 -30 2 -23 -1 -25
-33 -21 -24 2 -49 -5 -84 -24 -27 -14 -46 -29 -43 -32 7 -7 -31 -30 -43 -26
-14 4 -122 -55 -120 -66 1 -6 -5 -11 -13 -11 -20 1 -123 -55 -133 -72 -10 -17
-87 -17 -87 0 0 11 -100 70 -125 73 -5 1 -16 2 -22 3 -7 0 -12 5 -10 10 1 5
-7 17 -18 26 -27 22 -18 18 112 -54 l113 -63 32 20 c18 11 49 29 68 40 19 10
73 41 120 69 145 84 254 146 283 161 l27 13 0 212 c0 422 4 636 10 632 4 -3 6
-172 5 -377z m2065 317 c-6 -31 -14 -55 -16 -52 -2 2 1 29 7 61 7 31 14 54 16
52 3 -2 -1 -30 -7 -61z m-4155 -37 c28 -121 27 -115 17 -98 -5 8 -17 47 -26
87 -17 77 -18 83 -12 83 2 0 11 -33 21 -72z m481 -187 c25 -111 43 -208 41
-215 -2 -6 -9 19 -16 57 -8 37 -17 67 -22 67 -5 0 -6 7 -3 15 4 10 2 13 -8 10
-9 -4 -14 1 -14 14 0 11 4 17 8 15 11 -7 10 32 -1 54 -10 18 -42 190 -40 213
2 17 -1 28 55 -230z m3651 117 c-3 -24 -8 -50 -11 -58 -7 -17 -17 -73 -19
-107 -1 -13 -5 -23 -9 -23 -11 0 -11 2 14 123 23 110 34 139 25 65z m630 -13
c0 -8 -8 -15 -18 -15 -24 0 -90 -36 -111 -61 -17 -20 -42 -26 -36 -8 2 6 33
26 68 46 36 19 69 39 75 44 13 13 22 11 22 -6z m-4773 -86 c-3 -5 -10 -9 -15
-9 -6 0 -8 4 -4 9 9 16 -55 33 -66 18 -4 -5 -6 3 -6 17 l0 26 48 -26 c27 -15
46 -31 43 -35z m4146 -14 c0 -14 -4 -25 -8 -25 -7 0 -8 31 -3 48 4 11 11 -3
11 -23z m0 -59 c0 -3 -4 -8 -10 -11 -5 -3 -10 -1 -10 4 0 6 5 11 10 11 6 0 10
-2 10 -4z m-59 -88 c-6 -17 -11 -44 -11 -59 0 -15 -4 -31 -10 -34 -14 -8 -13
-2 7 85 10 41 19 67 21 57 2 -10 -1 -32 -7 -49z m-4676 42 c3 -5 1 -10 -4 -10
-6 0 -11 5 -11 10 0 6 2 10 4 10 3 0 8 -4 11 -10z m260 -140 c3 -5 1 -10 -4
-10 -6 0 -11 5 -11 10 0 6 2 10 4 10 3 0 8 -4 11 -10z m884 -50 c1 -13 0 -13
-9 0 -5 8 -9 26 -9 40 l1 25 8 -25 c4 -14 8 -32 9 -40z m3461 -45 c-18 -18
-29 -38 -26 -44 5 -7 -6 -11 -31 -11 -22 0 -44 -5 -51 -12 -6 -6 -14 -9 -17
-6 -3 2 19 17 47 33 63 33 98 63 99 84 0 12 2 12 6 3 3 -8 -9 -29 -27 -47z
m-4270 9 c0 -8 -5 -12 -10 -9 -6 4 -8 11 -5 16 9 14 15 11 15 -7z m44 -25 c8
-12 19 -18 25 -15 5 4 12 2 15 -3 4 -5 1 -13 -5 -16 -6 -4 -24 7 -41 24 -17
17 -26 31 -20 31 6 0 18 -9 26 -21z m852 -10 c30 -17 54 -36 53 -42 0 -8 -2
-8 -6 1 -2 6 -22 12 -43 12 -21 0 -42 4 -45 10 -3 6 1 7 9 4 26 -10 18 10 -11
28 -48 30 -13 19 43 -13z m-866 -38 c-8 -5 -38 -14 -67 -21 -29 -8 -49 -18
-46 -23 4 -6 0 -8 -10 -4 -9 3 -18 0 -21 -9 -3 -9 -16 -14 -28 -13 -28 4 -118
-22 -118 -34 0 -4 -4 -6 -8 -3 -5 3 -26 0 -48 -6 -21 -6 -33 -13 -26 -15 24
-9 11 -24 -20 -22 -18 0 -42 -1 -53 -4 -94 -24 -115 -30 -115 -37 0 -5 -9 -6
-19 -3 -14 3 -19 0 -18 -14 2 -15 -5 -18 -38 -18 -27 0 -43 -6 -50 -17 -5 -9
-14 -17 -20 -17 -10 -1 -11 -5 -14 -36 0 -8 -8 -15 -16 -15 -8 0 -16 -6 -16
-12 -10 -86 -11 -160 -1 -168 4 -3 13 -17 21 -32 8 -16 23 -28 33 -28 10 0 22
-10 27 -23 10 -25 63 -44 130 -46 52 -2 51 -11 0 -11 -76 0 -120 18 -171 70
-68 70 -83 141 -52 234 32 93 51 104 366 208 374 123 441 143 398 119z m970
-16 c17 -9 27 -21 26 -32 -3 -20 -21 -28 -31 -14 -3 6 -1 11 4 11 6 0 11 5 11
11 0 5 -5 7 -12 3 -7 -4 -8 -3 -4 4 4 7 1 12 -8 12 -8 0 -17 -8 -19 -17 -3
-10 -4 -6 -4 10 2 32 0 31 37 12z m4365 -65 c121 -40 222 -74 225 -77 3 -3 -6
-2 -20 2 -14 4 -37 8 -52 7 -16 0 -28 5 -28 11 0 9 -2 9 -8 1 -12 -18 -42 -12
-42 8 0 10 -5 18 -11 18 -5 0 -8 -4 -4 -9 3 -5 1 -12 -5 -16 -9 -5 -14 7 -12
26 2 10 -109 39 -145 39 -41 0 -63 9 -63 26 0 7 -16 16 -35 20 -19 3 -38 11
-42 17 -4 6 0 8 8 5 8 -3 113 -38 234 -78z m-1239 61 c-3 -4 -19 -14 -36 -21
-23 -10 -28 -15 -18 -22 10 -7 10 -9 -2 -7 -27 3 -36 -1 -60 -23 -13 -13 -29
-23 -35 -23 -5 0 -11 -4 -12 -9 -2 -13 -32 -28 -42 -21 -14 8 -81 -34 -81 -51
0 -13 -43 -30 -66 -26 -6 1 -22 -8 -35 -20 -14 -13 -28 -24 -32 -24 -46 -9
-50 -13 -36 -30 13 -16 12 -17 -5 -7 -16 9 -33 4 -87 -25 -37 -19 -67 -40 -66
-46 1 -6 -7 -11 -18 -12 -23 -1 -147 -68 -140 -75 2 -3 -16 -6 -41 -7 -29 -1
-43 2 -39 9 4 5 14 9 23 8 25 -4 61 10 122 46 151 90 371 204 384 199 8 -3 17
-1 21 5 3 7 0 8 -9 5 -9 -3 -16 -4 -16 -1 0 3 43 29 96 57 52 29 126 70 162
91 71 42 76 44 68 30z m-3011 -62 c41 -22 73 -45 70 -50 -4 -5 0 -6 8 -3 19 7
283 -140 279 -156 -1 -6 2 -9 8 -5 5 3 17 2 26 -3 14 -8 11 -10 -12 -10 -35 0
-65 14 -61 30 3 17 -82 55 -110 50 -15 -3 -25 1 -29 12 -3 9 -11 13 -18 9 -6
-4 -6 -1 2 9 10 13 10 17 -5 22 -10 4 -19 2 -21 -4 -3 -7 -10 -2 -19 9 -9 13
-25 21 -43 21 -16 0 -32 5 -36 12 -4 7 -3 8 4 4 7 -4 12 -2 12 3 0 6 -2 11 -4
11 -2 0 -12 3 -22 7 -13 5 -15 3 -9 -7 5 -9 4 -11 -3 -6 -7 4 -12 13 -12 20 0
14 -41 36 -69 36 -10 0 -18 7 -18 15 0 8 2 15 4 15 2 0 37 -18 78 -41z m4573
-103 c86 -30 127 -58 157 -111 32 -56 38 -90 25 -150 -17 -82 -86 -156 -157
-170 -27 -5 -27 -5 3 7 17 7 42 21 55 31 13 10 18 15 11 12 -6 -4 -20 1 -29
11 -16 16 -16 16 7 9 39 -12 41 -11 61 15 27 36 32 213 6 218 -9 2 -17 8 -17
13 0 6 5 7 10 4 14 -9 13 8 -2 23 -9 9 -15 9 -27 -1 -14 -11 -14 -10 -2 5 12
16 10 19 -15 29 -16 6 -42 11 -58 11 -19 -1 -30 5 -33 17 -2 9 -23 25 -46 33
-65 26 -29 21 51 -6z m-5123 -76 c-3 -5 2 -10 12 -10 10 0 36 -9 58 -20 22
-11 50 -20 62 -20 14 0 23 -6 23 -15 0 -8 6 -14 13 -12 6 1 11 -4 10 -10 -2
-7 2 -13 9 -13 6 0 9 -2 6 -5 -3 -3 -41 15 -85 40 -88 49 -109 53 -173 30 -24
-8 -45 -14 -47 -11 -2 2 11 9 29 15 18 7 44 18 58 26 32 17 32 17 25 5z m4071
-35 c23 -9 50 -16 60 -15 45 5 73 -1 96 -22 36 -34 133 -63 195 -60 46 3 52 1
55 -19 2 -16 17 -26 63 -40 33 -11 68 -17 78 -15 10 2 21 -2 24 -10 4 -11 9
-12 19 -3 10 8 14 8 14 0 0 -6 5 -11 11 -11 5 0 8 4 5 8 -3 5 1 9 9 9 8 0 15
-8 15 -17 0 -22 113 -59 187 -62 29 -1 50 -5 47 -10 -3 -4 0 -8 5 -8 6 0 11
-6 11 -13 0 -8 23 -18 58 -25 92 -19 100 -22 47 -17 -29 2 -269 77 -564 174
-282 94 -524 171 -538 171 -22 0 -141 -64 -393 -210 -36 -21 -123 -71 -195
-110 -71 -40 -149 -84 -172 -97 -24 -14 -43 -23 -43 -20 0 3 25 20 55 37 30
17 55 36 55 41 0 6 4 8 8 5 5 -3 25 6 45 19 20 14 41 25 47 25 6 0 8 5 4 12
-4 6 -3 8 4 5 15 -10 43 3 35 16 -3 5 -1 7 4 4 13 -8 105 41 99 52 -7 11 12
36 21 28 4 -5 1 -12 -7 -17 -8 -6 -11 -10 -7 -10 21 0 140 75 144 91 3 12 12
16 27 13 14 -2 32 5 47 19 13 12 25 21 26 20 2 -2 8 -3 15 -3 6 0 3 10 -8 22
-12 14 -13 18 -3 10 9 -6 20 -8 24 -4 5 4 5 1 1 -5 -4 -7 -3 -13 2 -13 14 0
33 26 25 33 -3 4 6 7 21 7 15 0 38 8 52 17 31 20 93 32 114 22 8 -4 33 -15 56
-24z m-5276 4 c0 -6 -4 -7 -10 -4 -5 3 -10 1 -10 -5 0 -6 -4 -8 -10 -5 -5 3
-10 11 -10 16 0 6 5 7 10 4 6 -3 10 -1 10 5 0 6 5 8 10 5 6 -3 10 -11 10 -16z
m1860 -13 c0 -2 -8 -10 -17 -17 -16 -13 -17 -12 -4 4 13 16 21 21 21 13z
m-813 -22 c-8 -8 -150 -54 -154 -50 -3 2 11 9 30 15 20 7 38 19 41 27 4 10 13
13 31 8 15 -4 25 -2 25 5 0 6 7 8 15 4 9 -3 14 -7 12 -9z m2778 -66 c7 -7 4
-7 -9 -1 -10 6 -27 8 -37 6 -13 -4 -19 0 -19 11 0 8 -13 22 -30 31 -16 9 -30
18 -30 21 0 7 111 -54 125 -68z m-2385 8 c6 -8 19 -12 27 -9 11 4 14 2 9 -5
-4 -7 -3 -12 3 -12 5 0 13 5 16 10 10 16 25 12 25 -7 0 -15 -2 -16 -10 -3 -6
9 -10 10 -10 3 0 -14 60 -52 90 -58 12 -2 29 -10 37 -16 12 -10 17 -10 25 2 8
11 9 10 4 -5 -5 -15 -2 -17 15 -13 16 4 19 3 11 -5 -9 -9 -2 -18 24 -36 27
-18 38 -21 44 -12 5 9 9 9 14 1 4 -6 1 -11 -6 -11 -10 0 -9 -3 1 -9 10 -7 19
-4 29 7 7 9 11 12 7 5 -3 -7 6 -19 22 -27 16 -9 22 -16 13 -16 -8 -1 3 -10 25
-19 26 -12 44 -15 52 -9 9 7 11 4 8 -12 -3 -16 0 -20 11 -16 10 4 13 2 8 -6
-5 -8 -2 -9 10 -5 9 4 15 3 12 -1 -5 -8 52 -43 68 -41 5 0 13 -5 17 -13 7 -10
9 -10 9 0 0 6 7 12 16 12 11 0 15 -6 11 -19 -6 -25 80 -67 130 -62 33 3 34 2
23 -19 -8 -15 -8 -20 -1 -16 14 9 31 -35 31 -82 0 -28 3 -33 10 -22 6 9 10 10
10 3 0 -6 -4 -14 -9 -17 -4 -3 -9 -44 -10 -92 -1 -54 2 -84 8 -80 5 4 12 2 16
-4 3 -5 -1 -10 -9 -10 -12 0 -16 -10 -16 -36 0 -19 4 -33 8 -30 5 3 9 -1 9 -9
0 -8 -4 -15 -8 -15 -5 0 -10 -35 -12 -77 -1 -43 -4 37 -5 177 -1 144 -7 262
-12 270 -5 8 -10 11 -10 6 0 -5 -7 -3 -15 4 -8 7 -13 16 -10 20 3 5 0 12 -6
16 -8 4 -9 3 -5 -4 4 -7 4 -12 1 -12 -6 0 -97 50 -245 134 -31 17 -119 66
-198 109 -85 47 -139 83 -135 89 3 7 1 8 -5 4 -6 -4 -49 15 -94 41 -83 47
-118 73 -100 73 5 0 15 -6 22 -14z m-561 0 c-2 -1 -47 -18 -99 -36 -52 -17
-205 -70 -340 -116 -134 -46 -249 -84 -255 -83 -5 0 2 5 18 11 15 5 24 14 21
20 -4 7 -2 8 4 4 11 -6 16 5 13 26 0 4 8 5 19 3 11 -2 22 0 25 5 3 6 16 5 30
0 18 -7 40 -4 82 11 32 12 65 24 73 27 8 3 20 6 25 7 30 4 65 18 65 26 0 5 7
6 15 3 8 -4 15 -1 15 6 0 6 4 9 8 6 9 -5 77 16 88 27 4 4 16 7 27 7 13 0 18 5
15 18 -4 13 2 17 24 18 20 1 25 -2 16 -7 -10 -7 -9 -9 4 -9 9 0 20 5 23 10 4
6 9 9 13 6 4 -2 16 0 27 5 20 8 52 12 44 5z m3010 -42 c14 -12 -19 -1 -35 12
-18 14 -18 14 6 3 14 -6 27 -13 29 -15z m-2046 -133 c3 -14 1 -18 -9 -14 -15
6 -18 16 -7 26 9 10 10 9 16 -12z m147 -105 c0 -3 -4 -8 -10 -11 -5 -3 -10 -1
-10 4 0 6 5 11 10 11 6 0 10 -2 10 -4z m2364 -54 c3 -5 -41 -35 -97 -67 -56
-33 -105 -64 -109 -69 -4 -6 -8 -132 -8 -279 0 -246 1 -268 18 -274 18 -7 312
-172 324 -182 4 -3 -16 -4 -44 -2 -34 2 -46 6 -37 12 11 7 11 9 1 9 -7 0 -11
4 -7 9 3 6 -3 15 -14 20 -14 8 -21 8 -24 -2 -4 -7 -6 -6 -6 4 -1 14 -23 27
-47 27 -3 1 -12 9 -20 19 -13 17 -14 17 -8 -2 4 -15 -2 -12 -23 12 -30 34 -78
57 -99 49 -8 -3 -11 0 -8 8 3 8 1 17 -5 21 -6 3 -11 19 -11 36 0 16 -6 29 -12
30 -10 0 -10 2 0 6 20 8 14 39 -10 52 -20 10 -20 11 -3 8 19 -4 20 2 21 203 0
201 1 207 24 238 13 18 30 30 37 28 7 -3 13 -2 13 3 0 4 6 8 13 8 6 0 38 15
70 33 42 23 55 35 45 41 -10 7 -9 9 4 9 9 0 19 -4 22 -8z m-2071 -177 c-3 -9
-8 -14 -10 -11 -3 3 -2 9 2 15 9 16 15 13 8 -4z m77 -166 c0 -6 -4 -7 -10 -4
-5 3 -10 11 -10 16 0 6 5 7 10 4 6 -3 10 -11 10 -16z m-42 -119 c7 -11 11 -20
9 -20 -2 0 -12 9 -22 20 -10 11 -14 20 -9 20 5 0 15 -9 22 -20z m-28 -111 c0
-5 -4 -9 -8 -9 -5 0 -9 7 -9 15 0 8 4 12 9 9 4 -3 8 -9 8 -15z m5 -39 c3 -6
-1 -7 -9 -4 -18 7 -21 14 -7 14 6 0 13 -4 16 -10z m-35 -55 c0 -14 -40 -42
-77 -54 -23 -8 -40 -19 -36 -24 3 -6 2 -7 -3 -4 -13 8 -39 -9 -39 -25 0 -7
-18 -16 -39 -19 -27 -4 -47 -16 -63 -35 -13 -16 -23 -23 -23 -16 0 7 -5 10
-11 7 -6 -4 -8 -12 -6 -19 3 -7 -5 -13 -17 -13 -11 -1 -47 -14 -78 -29 -47
-23 -55 -29 -42 -38 13 -10 12 -12 -6 -13 -11 -1 -18 2 -15 8 10 15 -1 11 -65
-28 -34 -20 -64 -42 -67 -50 -3 -7 -12 -13 -20 -13 -24 0 -143 -63 -137 -72 4
-5 0 -8 -7 -6 -8 1 -35 -10 -61 -25 -35 -20 -46 -32 -43 -47 3 -16 1 -18 -19
-9 -18 9 -32 5 -72 -17 -51 -28 -66 -43 -58 -56 3 -4 -8 -6 -24 -5 -37 3 -43
37 -6 37 18 0 294 143 384 199 69 43 365 205 372 204 4 -2 8 1 8 6 0 8 26 24
170 104 19 11 46 28 60 38 25 18 40 24 40 14z m4140 -230 c17 -9 28 -20 25
-25 -3 -5 0 -12 6 -16 8 -4 9 -3 5 4 -4 7 -2 12 4 12 18 0 68 -89 74 -135 8
-48 -9 -129 -25 -120 -5 4 -8 19 -7 35 1 16 5 27 9 24 10 -6 18 20 14 42 -2
11 -4 25 -4 32 -1 7 -6 10 -12 6 -7 -4 -9 1 -7 12 7 32 -19 72 -49 76 -20 2
-29 9 -31 25 -3 17 -14 25 -43 33 -43 12 -129 4 -129 -12 0 -5 -4 -7 -9 -4
-13 9 -62 -12 -76 -31 -7 -9 -19 -14 -28 -10 -15 6 -106 -19 -117 -32 -3 -3
-16 -8 -30 -9 -14 -2 -30 -8 -36 -13 -6 -5 -14 -5 -18 -1 -4 4 -6 0 -4 -8 2
-11 -10 -17 -52 -22 -71 -8 -110 -18 -110 -28 0 -4 -6 -8 -12 -7 -32 1 -49 -4
-44 -12 9 -14 -17 -28 -49 -26 -37 2 -207 -52 -217 -70 -4 -7 -25 -13 -45 -13
-21 0 -51 -6 -67 -12 -16 -6 -31 -9 -33 -6 -2 2 220 79 494 170 536 179 545
181 623 141z m-6315 5 c3 -5 0 -7 -9 -4 -20 8 -81 -13 -98 -33 -8 -10 -8 -14
-1 -10 6 4 15 2 19 -4 5 -9 0 -10 -18 -6 -23 6 -28 2 -51 -46 -17 -34 -26 -45
-26 -31 -2 67 155 181 184 134z m95 0 c13 -9 13 -10 0 -9 -8 1 -26 5 -40 9
l-25 8 25 1 c14 0 32 -4 40 -9z m4610 -153 c312 -175 381 -209 396 -196 7 6
19 9 26 6 8 -4 5 -8 -9 -12 -13 -4 -20 -11 -18 -16 3 -4 -10 -7 -30 -6 -19 1
-35 6 -35 11 0 4 8 5 18 1 29 -11 1 10 -53 40 -31 18 -63 27 -83 26 -26 -1
-35 3 -39 19 -3 11 -10 17 -16 13 -5 -3 -7 -1 -3 5 7 12 -47 42 -78 42 -41 0
-65 12 -61 29 4 20 -67 60 -98 55 -10 -1 -14 2 -10 9 4 6 0 8 -9 4 -10 -3 -15
0 -14 10 0 9 -5 18 -13 21 -10 3 -12 0 -8 -12 4 -11 3 -15 -4 -11 -6 4 -8 13
-5 20 5 15 -49 41 -76 37 -9 -2 -19 1 -22 7 -4 5 4 7 16 4 18 -4 15 0 -10 16
-18 12 -37 19 -41 17 -4 -3 -8 1 -8 9 0 10 11 8 41 -9 23 -13 133 -76 246
-139z m-4263 39 c144 -48 264 -90 267 -94 2 -4 -15 -8 -39 -8 -33 -1 -42 2
-41 14 1 20 -158 71 -203 64 -23 -3 -31 0 -31 11 0 8 -14 20 -31 26 -40 14
-37 14 -42 -6 -4 -14 -5 -14 -6 3 -1 17 -12 24 -48 35 -27 7 -52 12 -57 11
-20 -6 -56 9 -56 24 0 9 6 13 13 11 6 -3 130 -44 274 -91z m3410 -30 c45 2 61
0 48 -6 -11 -5 -15 -9 -8 -9 7 -1 32 -15 57 -32 24 -18 59 -33 78 -34 48 -4
48 -4 48 -20 0 -9 13 -24 30 -33 16 -9 30 -20 30 -24 0 -3 -64 29 -142 73 -79
43 -147 79 -151 79 -5 0 -34 -15 -65 -34 -32 -18 -106 -62 -167 -96 -60 -35
-141 -80 -178 -102 -66 -38 -92 -42 -81 -13 4 8 10 12 15 9 5 -3 9 0 9 7 0 7
3 9 6 6 4 -4 1 -14 -7 -23 -10 -12 -2 -10 28 7 23 13 39 28 36 33 -4 5 1 7 9
3 9 -3 24 1 35 10 17 14 17 14 0 9 -11 -4 -16 -2 -12 5 4 5 16 7 27 3 17 -5
20 -3 15 10 -6 15 3 20 31 17 7 -1 26 6 42 16 21 12 26 20 17 26 -7 5 -3 6 12
2 17 -5 22 -4 16 5 -5 9 -4 11 3 6 7 -4 17 -4 24 0 8 5 6 10 -8 16 -14 6 -12
7 9 3 15 -3 27 -2 27 3 0 4 16 14 35 21 26 9 35 18 35 35 0 26 10 40 22 28 4
-4 38 -7 75 -6z m-1423 -7 c-2 -4 3 -9 11 -13 8 -3 17 -1 20 5 9 14 27 -1 21
-17 -6 -15 40 -44 69 -44 8 0 15 -5 15 -11 0 -8 5 -7 16 1 8 8 14 9 13 4 -3
-14 12 -44 23 -44 5 0 7 4 3 9 -3 5 0 13 6 17 8 4 9 3 5 -4 -11 -18 31 -52 64
-52 19 0 30 -5 30 -14 0 -8 4 -18 10 -21 6 -3 7 1 4 10 -5 11 -2 14 12 9 30
-11 45 -26 40 -40 -7 -19 12 -28 51 -26 24 2 33 -2 33 -13 0 -9 8 -25 18 -36
14 -14 19 -36 20 -84 0 -36 -3 -65 -7 -65 -4 0 -8 21 -8 48 -1 92 1 88 -68
127 -36 20 -63 40 -61 44 3 4 0 13 -6 21 -8 12 -9 12 -4 -2 7 -23 -2 -23 -37
0 -15 10 -24 22 -20 27 5 4 3 5 -4 1 -11 -6 -286 145 -297 163 -3 4 4 7 14 7
10 0 17 -3 14 -7z m-69 -8 c-8 -14 -115 -70 -115 -61 0 4 14 13 30 20 17 7 33
17 37 23 3 5 1 7 -5 3 -6 -3 -13 -2 -16 3 -4 5 5 8 18 7 14 -2 30 1 38 5 17
11 20 11 13 0z m-2504 -152 c13 -10 24 -23 24 -29 0 -6 14 -19 30 -28 17 -9
32 -20 35 -23 5 -6 57 -22 75 -23 6 -1 12 -4 15 -7 7 -9 172 -59 194 -59 9 0
14 -4 11 -10 -3 -5 0 -10 9 -10 8 0 16 3 19 8 2 4 2 1 0 -7 -2 -9 3 -12 18 -8
11 3 18 3 15 -1 -9 -8 146 -63 162 -57 8 3 10 0 6 -7 -5 -7 0 -9 14 -6 12 4
20 3 17 -1 -2 -5 14 -14 36 -20 23 -7 39 -14 36 -17 -6 -7 -617 205 -652 226
-75 46 -116 118 -114 200 1 25 5 15 14 -34 9 -52 18 -73 36 -87z m6559 106 c0
-5 -5 -3 -10 5 -5 8 -10 20 -10 25 0 6 5 3 10 -5 5 -8 10 -19 10 -25z m-5578
-41 c56 -20 107 -39 111 -44 18 -16 -49 -7 -68 10 -11 10 -47 26 -80 36 -52
15 -92 34 -73 34 3 0 53 -16 110 -36z m1368 12 c0 -4 7 -6 15 -2 32 12 13 -3
-42 -34 -32 -18 -78 -44 -102 -58 -25 -14 -42 -21 -38 -15 4 6 0 13 -8 17 -8
3 -15 11 -15 18 0 10 2 10 9 -1 5 -8 14 -10 21 -6 9 6 11 4 5 -5 -5 -8 -3 -11
6 -8 8 3 13 11 12 17 -2 6 8 11 22 11 25 0 101 59 78 60 -25 0 -13 15 12 15
14 0 25 -4 25 -9z m-1199 -71 c34 -16 34 -16 4 -10 -16 4 -34 11 -39 16 -14
13 -3 11 35 -6z m3169 -7 c0 7 5 10 10 7 6 -4 8 -11 5 -16 -11 -17 8 -9 21 8
7 10 16 14 20 10 5 -4 2 -12 -6 -17 -10 -7 -11 -10 -2 -10 6 0 12 -6 12 -14 0
-18 50 -38 94 -38 24 0 36 -5 36 -14 0 -7 8 -18 18 -23 13 -8 14 -11 2 -11
-25 -1 33 -29 61 -30 18 0 28 -7 32 -19 5 -21 83 -67 106 -62 7 1 10 -2 6 -9
-4 -7 1 -6 14 2 18 11 23 11 30 -1 5 -8 7 -19 5 -25 -6 -15 68 -46 114 -48 29
-1 38 -5 39 -20 1 -10 -3 -18 -8 -18 -6 0 -8 4 -5 8 2 4 -5 9 -17 9 -16 2 -8
-7 26 -27 26 -17 47 -33 47 -36 0 -3 -15 3 -32 14 -38 23 -216 124 -333 190
-103 57 -116 67 -107 77 4 4 0 6 -10 2 -9 -3 -35 6 -60 22 -23 15 -66 40 -95
56 -29 15 -50 32 -46 37 3 6 9 4 14 -3 7 -11 9 -11 9 -1z m2190 -8 c-9 -16
-13 -18 -24 -8 -12 11 -11 14 3 20 27 11 32 9 21 -12z m28 -2 c-23 -34 -75
-71 -75 -53 0 8 4 12 9 9 4 -3 8 0 8 5 0 6 6 11 13 11 8 0 20 11 27 25 7 14
18 25 23 25 5 0 3 -10 -5 -22z m-1213 -8 c-3 -5 -14 -10 -23 -10 -15 0 -15 2
-2 10 20 13 33 13 25 0z m-3189 -46 c-43 -29 -175 -99 -154 -82 12 10 13 19 7
31 -8 14 -6 17 12 17 18 0 19 -2 9 -15 -7 -8 -9 -15 -4 -15 12 1 45 26 40 31
-2 2 2 10 10 17 8 7 14 8 14 2 0 -5 5 -10 11 -10 5 0 7 6 3 13 -4 6 -4 9 1 5
4 -4 20 -1 36 7 20 11 26 20 22 32 -6 15 -5 16 9 3 14 -13 12 -17 -16 -36z
m-796 10 c0 -8 -5 -12 -10 -9 -6 4 -8 11 -5 16 9 14 15 11 15 -7z m5077 -33
c14 5 28 8 30 6 2 -2 -29 -16 -69 -30 -310 -108 -384 -132 -323 -102 17 8 36
14 43 15 6 0 12 5 12 11 0 5 4 8 9 4 6 -3 14 3 20 12 6 10 11 12 11 6 0 -7 5
-13 11 -13 5 0 8 4 5 9 -4 5 2 8 11 7 26 -4 197 60 202 75 3 10 5 11 8 2 3 -9
12 -9 30 -2z m-2932 -635 c0 -332 -3 -602 -7 -599 -5 2 -8 271 -8 597 0 496 3
606 14 606 1 0 1 -272 1 -604z m-1551 562 c-5 -7 -1 -9 9 -5 28 11 19 -1 -13
-18 -29 -15 -30 -15 -30 8 0 16 6 23 20 24 13 1 18 -2 14 -9z m4164 -23 c-3
-3 -9 2 -12 12 -6 14 -5 15 5 6 7 -7 10 -15 7 -18z m-4238 -38 c-19 -13 -91
-54 -160 -92 -153 -84 -172 -98 -187 -138 -11 -31 -11 -31 -12 -6 -1 19 10 36
34 58 20 17 40 31 46 31 6 0 7 5 3 12 -4 6 -3 8 4 4 6 -3 14 -1 19 6 4 7 17
13 28 13 11 0 19 6 18 13 -2 6 6 12 17 12 26 0 78 32 73 46 -2 6 4 17 14 25
11 9 14 10 9 2 -10 -17 4 -16 28 2 10 8 23 12 27 9 5 -3 19 2 31 10 12 9 27
16 33 16 5 0 -6 -10 -25 -23z m3147 8 c0 -8 -4 -12 -9 -9 -5 3 -6 10 -3 15 9
13 12 11 12 -6z m993 -27 c-144 -57 -235 -86 -249 -78 -13 8 -12 10 7 11 12 1
27 3 32 4 6 1 17 3 26 4 9 0 12 6 8 13 -4 6 -3 8 4 5 5 -4 18 -4 27 -1 13 5
14 9 3 15 -8 6 0 7 19 3 28 -6 32 -4 29 13 -4 17 2 19 57 20 51 1 57 -1 37 -9z
m-2941 -113 c-2 -80 -8 -91 -16 -30 -5 37 3 105 13 105 3 0 4 -34 3 -75z
m2814 -59 c53 -32 97 -59 97 -62 0 -3 -7 -1 -16 4 -9 5 -25 7 -34 5 -12 -3
-19 3 -23 17 -4 17 -11 21 -24 16 -9 -4 -14 -4 -10 0 4 4 -13 20 -38 36 -50
31 -59 34 -50 16 4 -7 0 -5 -8 5 -15 18 -15 18 -20 0 -3 -10 -5 -3 -6 16 -1
32 0 33 17 19 9 -8 61 -41 115 -72z m-5136 49 c0 -8 -4 -12 -9 -9 -4 3 -8 0
-8 -6 0 -7 -8 -9 -20 -5 -11 4 -20 2 -20 -4 0 -6 -6 -11 -13 -11 -22 0 -48
-24 -49 -46 -2 -17 -9 -21 -38 -21 -38 0 -80 -17 -80 -33 0 -6 -3 -9 -7 -9
-23 4 -43 -2 -38 -11 3 -6 -4 -10 -17 -10 -19 0 -20 -2 -8 -11 12 -9 12 -10
-3 -5 -22 7 -60 -11 -52 -24 4 -6 -4 -9 -17 -7 -15 1 -22 -3 -20 -11 1 -8 -2
-11 -8 -7 -13 8 -52 -14 -45 -25 3 -6 0 -8 -7 -5 -16 6 -151 -69 -141 -78 3
-4 -1 -7 -11 -7 -19 0 -96 -37 -96 -46 0 -3 6 -4 14 -1 10 4 14 0 13 -13 -1
-10 -5 -16 -9 -14 -5 3 -22 -1 -38 -10 -27 -13 -29 -13 -21 2 5 9 20 27 33 39
20 18 621 359 688 390 14 6 25 12 26 12 0 1 1 -6 1 -14z m4458 -13 c-3 -3 -11
0 -18 7 -9 10 -8 11 6 5 10 -3 15 -9 12 -12z m-190 -21 c-3 -6 0 -13 7 -18 7
-4 13 -17 14 -28 0 -11 4 -40 7 -65 6 -44 6 -42 -33 95 -3 14 -1 25 6 25 3 0
3 -4 -1 -9z m-1948 -88 c-3 -10 -5 -2 -5 17 0 19 2 27 5 18 2 -10 2 -26 0 -35z
m2972 -19 c14 -12 -19 -1 -35 12 -18 14 -18 14 6 3 14 -6 27 -13 29 -15z
m-4546 -86 c-13 -57 -26 -110 -30 -118 -3 -8 -5 -24 -5 -35 l2 -20 -9 20 c-10
23 -9 41 2 38 6 -3 10 17 10 60 0 9 3 17 7 17 4 0 13 32 20 70 7 39 16 70 20
70 4 0 -4 -46 -17 -102z m1574 60 c-3 -8 -6 -5 -6 6 -1 11 2 17 5 13 3 -3 4
-12 1 -19z m3146 -78 c-2 -5 3 -7 10 -5 17 6 283 -140 279 -154 -1 -7 1 -10 6
-7 16 9 72 -64 72 -94 0 -6 -5 -8 -11 -4 -9 5 -10 -3 -5 -28 3 -19 2 -46 -2
-59 -7 -16 -9 -2 -10 55 -2 93 -12 116 -52 116 -17 0 -31 5 -31 10 -1 6 -2 15
-3 20 -1 14 -28 30 -38 24 -4 -3 -8 0 -8 6 0 7 -6 10 -14 7 -8 -3 -17 1 -20 8
-3 8 -12 12 -20 9 -20 -8 -59 15 -52 31 6 16 -19 27 -48 20 -12 -3 -15 -2 -8
1 20 9 3 24 -29 24 -17 0 -29 5 -29 13 0 7 -9 18 -20 25 -11 7 -20 8 -20 3 0
-5 7 -12 16 -15 8 -3 12 -10 9 -16 -7 -12 -36 -14 -34 -2 5 32 -3 52 -26 58
-14 3 -25 10 -25 14 0 5 -10 6 -22 4 -13 -2 -17 -1 -10 2 10 5 9 9 -5 21 -10
8 20 -6 67 -31 47 -25 84 -50 83 -56z m-163 70 c0 -5 -7 -10 -16 -10 -8 0 -12
5 -9 10 3 6 10 10 16 10 5 0 9 -4 9 -10z m-980 -40 c0 -5 -4 -10 -10 -10 -5 0
-10 5 -10 10 0 6 5 10 10 10 6 0 10 -4 10 -10z m25 -50 c8 0 15 -5 15 -11 0
-5 -4 -8 -9 -5 -10 6 -25 -24 -16 -32 3 -3 5 0 5 7 0 7 5 9 10 6 13 -8 13 -42
1 -47 -5 -1 3 -63 19 -136 41 -194 38 -186 55 -172 21 18 18 3 -4 -19 -18 -18
-19 -12 -65 203 -49 233 -52 252 -35 224 5 -10 17 -18 24 -18z m-2030 -41 c1
-27 -3 -49 -7 -49 -4 0 -8 26 -8 57 0 31 3 53 8 49 4 -4 7 -30 7 -57z m-2145
-59 c0 -5 -4 -10 -10 -10 -5 0 -10 5 -10 10 0 6 5 10 10 10 6 0 10 -4 10 -10z
m12 -20 c-13 -10 -30 -16 -37 -13 -17 6 -20 23 -5 23 6 0 10 -5 10 -11 0 -7 9
-5 23 4 31 22 37 20 9 -3z m4613 -58 c-3 -3 -5 2 -5 11 0 10 -7 17 -15 17 -8
0 -15 5 -15 10 0 6 5 10 10 10 6 0 10 8 11 18 1 9 5 -1 10 -22 5 -21 7 -41 4
-44z m108 59 c6 -6 7 -11 2 -11 -19 0 49 -31 72 -32 12 -1 23 -6 23 -11 0 -5
-7 -7 -15 -3 -8 3 -15 3 -15 0 0 -2 10 -9 23 -13 16 -6 28 -4 42 8 20 16 20
16 1 -6 -15 -18 -16 -23 -5 -23 8 0 26 -8 39 -17 14 -10 34 -16 45 -15 17 2
17 1 5 -7 -8 -6 -10 -11 -4 -11 5 0 15 5 22 12 9 9 12 7 12 -11 0 -15 4 -20
13 -15 6 4 9 4 5 -1 -5 -5 33 -32 83 -61 50 -28 96 -58 102 -65 7 -7 -4 -3
-23 8 -19 12 -136 78 -260 148 -124 71 -229 132 -235 137 -5 4 5 6 24 4 18 -2
38 -9 44 -15z m-4656 -13 c-3 -8 -6 -5 -6 6 -1 11 2 17 5 13 3 -3 4 -12 1 -19z
m2065 -30 c-8 -8 -9 -4 -5 13 4 13 8 18 11 10 2 -7 -1 -18 -6 -23z m-2173 18
c-9 -9 -160 -96 -167 -96 -3 0 4 7 16 16 12 8 22 22 22 30 0 10 7 13 24 8 14
-3 27 -1 32 7 5 9 2 11 -9 6 -8 -3 -18 0 -21 8 -4 10 2 11 24 5 20 -6 34 -4
47 6 16 12 43 20 32 10z m552 -33 c-8 -15 -10 -15 -11 -2 0 17 10 32 18 25 2
-3 -1 -13 -7 -23z m-456 -23 c-9 -41 -17 -33 -9 9 4 17 9 30 11 27 3 -2 2 -19
-2 -36z m2077 -131 c-7 -18 -9 -9 -7 36 5 106 9 122 12 54 2 -36 0 -76 -5 -90z
m2531 -22 c3 -21 2 -35 -2 -32 -5 2 -12 26 -16 52 -5 27 -9 53 -11 58 -13 58
-10 76 4 25 10 -36 21 -82 25 -103z m-4197 -52 c-40 -170 -45 -184 -45 -132
-1 31 3 57 8 57 5 0 21 53 36 118 14 64 29 128 32 142 3 14 7 21 9 15 2 -5
-16 -95 -40 -200z m-1406 174 c0 -5 -4 -9 -10 -9 -5 0 -10 7 -10 16 0 8 5 12
10 9 6 -3 10 -10 10 -16z m709 -23 c-17 -17 -357 -211 -414 -237 -98 -45 -242
-8 -287 74 -8 16 -7 17 11 5 11 -6 18 -15 16 -18 -9 -14 56 -50 89 -50 19 0
38 -5 42 -11 4 -7 25 -9 62 -4 64 8 101 23 98 39 -2 6 -1 8 1 4 3 -5 9 -8 14
-8 5 0 8 3 8 8 -3 19 2 32 12 32 8 0 8 -5 -1 -15 -7 -8 -8 -15 -2 -15 5 0 15
7 22 15 7 8 20 15 29 15 14 0 14 2 1 11 -12 8 -11 9 6 4 14 -3 29 3 47 19 15
14 27 23 27 20 0 -2 14 3 30 11 18 9 28 21 24 27 -4 6 -3 8 3 5 17 -10 93 33
93 53 0 13 5 17 20 13 13 -3 20 0 20 8 0 11 2 11 10 -1 8 -12 10 -12 16 3 3
10 9 15 12 12 3 -3 -1 -12 -9 -19z m-715 -116 c5 -20 3 -19 -9 5 -8 17 -14 50
-13 75 l0 45 8 -50 c4 -28 10 -62 14 -75z m980 76 c-3 -21 -8 -35 -11 -32 -2
2 -1 20 3 40 3 21 8 35 11 32 2 -2 1 -20 -3 -40z m5617 -54 c-27 -98 -117
-166 -220 -165 -61 1 -177 45 -166 63 9 14 35 13 35 -3 0 -13 58 -43 67 -34 3
3 16 2 30 -4 16 -6 22 -6 18 1 -4 6 10 10 34 10 23 0 41 -5 41 -10 0 -20 96
42 119 77 13 20 28 64 35 97 7 41 12 52 14 34 2 -14 -2 -44 -7 -66z m-5627
-14 c-15 -23 -22 -83 -13 -100 6 -12 6 -18 -1 -18 -5 0 -10 -7 -10 -15 0 -8
-5 -15 -10 -15 -6 0 -9 10 -6 23 20 107 30 146 37 141 5 -3 6 -10 3 -16z
m2116 -75 c0 -42 -9 -39 -16 6 -3 18 -1 31 5 31 6 0 11 -16 11 -37z m2532 -20
l-10 -38 2 47 c0 26 5 43 10 38 5 -5 4 -25 -2 -47z m544 48 c-8 -12 18 -21 45
-16 21 4 22 3 7 -11 -15 -15 -19 -15 -46 2 -29 16 -34 34 -11 34 6 0 8 -4 5
-9z m-965 -45 c7 4 8 -8 3 -31 -5 -30 -4 -36 6 -30 9 5 11 4 6 -4 -4 -6 0 -45
9 -86 9 -41 15 -80 12 -87 -2 -7 -7 7 -11 32 -4 25 -16 79 -27 122 -18 72 -25
121 -12 90 2 -6 9 -9 14 -6z m469 -161 c17 -77 33 -148 37 -159 3 -11 1 -16
-5 -12 -5 3 -13 23 -16 43 -20 117 -40 192 -49 186 -6 -3 -7 -1 -3 5 4 7 1 12
-8 12 -10 0 -13 6 -9 16 5 13 7 13 15 2 5 -8 7 2 3 27 -9 67 3 27 35 -120z
m-4754 19 c-8 -32 -15 -51 -15 -42 -1 23 22 123 26 111 2 -5 -3 -36 -11 -69z
m2172 -8 c-2 -41 -5 -73 -9 -71 -4 3 -3 108 1 143 0 1 3 2 6 2 3 0 4 -33 2
-74z m-1724 -45 c-4 -23 -9 -40 -11 -37 -3 3 -2 23 2 46 4 23 9 39 11 37 3 -2
2 -23 -2 -46z m-467 -33 c-3 -8 -6 -5 -6 6 -1 11 2 17 5 13 3 -3 4 -12 1 -19z
m2161 -18 c-7 -11 -16 -20 -21 -20 -4 0 -5 -4 -2 -10 3 -5 0 -8 -7 -5 -7 2
-26 -7 -42 -21 -23 -21 -26 -28 -15 -35 11 -7 8 -9 -9 -9 -15 0 -21 -4 -16
-12 4 -6 3 -8 -3 -5 -17 11 -52 -21 -46 -42 4 -15 0 -19 -14 -17 -22 4 -45
-13 -36 -27 3 -6 1 -7 -6 -3 -6 4 -18 1 -26 -8 -10 -9 -11 -17 -5 -21 17 -10
1 -24 -22 -20 -21 4 -66 -40 -60 -58 1 -5 -2 -6 -7 -3 -5 3 -12 -1 -15 -10 -3
-8 -10 -13 -15 -9 -13 8 -41 -35 -41 -63 0 -20 -4 -22 -36 -20 l-37 2 45 41
c42 37 302 273 395 357 47 42 59 48 41 18z m-2173 -65 c-4 -31 -10 -54 -12
-51 -3 3 -2 30 2 61 3 31 9 54 12 52 2 -3 1 -31 -2 -62z m445 -31 c-11 -44
-28 -90 -38 -103 -76 -103 -215 -128 -320 -57 -42 28 -92 95 -91 121 0 6 8 -5
17 -23 10 -18 21 -29 26 -25 4 4 6 3 5 -2 -4 -13 21 -58 28 -51 3 3 12 -1 20
-9 8 -8 27 -15 43 -15 16 0 31 -6 34 -12 5 -10 7 -10 12 0 3 6 10 12 15 12 6
0 7 -6 3 -12 -5 -8 0 -7 11 2 11 9 16 10 11 3 -15 -26 68 -14 116 16 53 34 63
47 43 55 -8 3 -14 2 -12 -2 1 -4 -2 -8 -8 -10 -5 -2 -11 1 -13 7 -2 5 11 14
29 19 30 7 33 11 34 48 0 24 4 38 11 37 8 -1 10 6 6 19 -3 13 -1 19 5 15 7 -4
14 8 18 31 4 20 9 32 12 26 2 -7 -5 -47 -17 -90z m2541 -210 c69 -61 146 -130
172 -152 44 -38 45 -41 19 -38 -15 2 -33 4 -41 5 -8 1 -12 9 -9 25 5 26 -18
46 -52 46 -11 0 -20 7 -20 16 0 9 -5 12 -12 8 -7 -5 -8 -3 -4 5 8 13 -20 51
-36 51 -13 0 -33 21 -41 44 -4 11 -13 16 -22 12 -8 -3 -14 0 -12 7 1 6 -7 13
-18 15 -11 1 -26 16 -34 33 -8 19 -18 28 -27 25 -9 -3 -17 2 -21 12 -8 23 -84
92 -95 86 -4 -3 -8 2 -8 10 0 8 -18 30 -40 47 -22 18 -40 37 -40 42 0 5 49
-35 108 -90 60 -54 165 -148 233 -209z m1405 239 c6 -7 15 -9 18 -5 4 3 4 -1
0 -11 -6 -17 -7 -17 -21 0 -13 16 -14 15 -9 -12 3 -16 8 -41 11 -55 3 -14 -1
-9 -8 10 -8 19 -17 58 -20 85 -6 44 -5 47 5 25 7 -14 18 -30 24 -37z m406
-107 c-48 -107 -198 -153 -314 -95 -37 19 -78 63 -78 83 0 6 7 3 14 -6 7 -10
17 -14 21 -10 4 4 6 0 3 -8 -8 -25 39 -53 88 -52 24 1 44 -2 44 -6 0 -4 16 -8
35 -9 19 -1 35 3 35 8 0 6 8 9 18 8 30 -3 37 0 70 27 17 15 29 32 25 38 -3 6
-3 8 2 4 11 -11 31 20 41 62 4 21 9 28 12 18 2 -9 -6 -37 -16 -62z m-3112
-272 c0 -8 -4 -13 -9 -9 -5 3 -13 1 -16 -5 -4 -6 -1 -9 5 -8 7 2 14 -4 15 -14
2 -12 -3 -15 -24 -13 -34 4 -50 -5 -54 -33 -2 -12 -7 -25 -12 -29 -4 -5 -5 -2
-1 5 5 7 1 12 -10 12 -11 0 -15 -6 -12 -18 4 -13 -1 -18 -20 -20 -14 -1 -33
-9 -43 -18 -19 -17 -14 -48 6 -41 6 3 12 -1 12 -9 0 -8 -2 -12 -5 -9 -3 2 -14
0 -25 -6 -13 -8 -17 -8 -13 -1 15 25 -41 5 -77 -28 -38 -34 -38 -35 -15 -41
22 -7 22 -7 1 -8 -12 -1 -24 3 -27 8 -4 5 53 63 126 129 73 66 144 131 157
146 28 30 41 33 41 10z m1641 -161 c204 -176 229 -215 220 -338 l-3 -30 -9 30
c-4 16 -6 39 -3 52 7 28 -3 76 -15 68 -5 -2 -17 8 -27 23 -15 24 -15 25 -1 13
11 -8 17 -9 17 -2 0 6 -13 17 -30 26 -16 9 -30 22 -30 29 0 19 -80 82 -98 78
-10 -2 -13 2 -9 12 6 15 -60 74 -76 68 -5 -1 -6 2 -3 7 3 5 -6 17 -21 26 -25
17 -26 17 -20 -4 7 -28 -1 -27 -12 2 -10 26 -4 40 12 30 7 -3 55 -44 108 -90z
m-1801 -3 c0 -5 -5 -10 -11 -10 -5 0 -7 5 -4 10 3 6 8 10 11 10 2 0 4 -4 4
-10z m610 -23 c0 -2 -19 -21 -42 -42 -29 -27 -35 -30 -18 -10 31 36 60 62 60
52z m488 -482 c-3 -296 -4 -312 -25 -350 -12 -22 -32 -46 -45 -54 l-23 -14 21
24 c12 13 19 30 17 37 -3 6 2 12 11 12 30 0 36 71 38 455 1 209 4 340 6 290 1
-49 2 -229 0 -400z m86 456 c-2 -3 -12 3 -22 13 -16 17 -16 18 5 5 12 -7 20
-15 17 -18z m-504 -37 c0 -30 -4 -53 -9 -50 -4 3 -8 28 -8 56 0 27 4 50 8 50
5 0 9 -25 9 -56z m554 25 c-2 -4 6 -16 19 -26 13 -10 26 -26 30 -36 4 -11 12
-15 19 -11 7 4 10 4 6 0 -4 -5 10 -25 31 -47 27 -27 45 -37 60 -34 12 2 19 0
16 -6 -4 -5 -12 -6 -18 -2 -7 4 -6 0 2 -10 7 -9 10 -17 6 -17 -9 0 -205 181
-205 190 0 3 9 6 19 6 11 0 18 -3 15 -7z m-707 -15 c-3 -3 -12 -4 -19 -1 -8 3
-5 6 6 6 11 1 17 -2 13 -5z m-40 -60 c-22 -22 -40 -33 -48 -28 -7 4 -10 3 -6
-3 4 -5 -7 -23 -24 -39 -19 -18 -28 -23 -24 -11 4 9 11 17 17 17 5 0 6 5 3 10
-4 6 -3 10 2 9 19 -3 23 2 14 20 -8 14 -7 20 5 25 8 3 12 2 9 -4 -13 -20 25
-9 51 15 41 38 42 30 1 -11z m-675 -11 c-11 -10 -30 -36 -41 -58 -12 -22 -21
-33 -21 -25 0 18 37 82 54 92 22 15 28 8 8 -9z m864 -48 c1 -24 -2 -42 -6 -40
-9 5 -9 85 -1 85 4 0 7 -20 7 -45z m-336 -68 c-19 -18 -83 -76 -143 -129 -93
-82 -116 -98 -168 -112 -70 -20 -120 -16 -179 14 -42 21 -100 91 -100 119 1 9
12 -5 26 -31 19 -38 30 -48 49 -48 15 0 25 -6 25 -14 0 -8 4 -17 9 -20 5 -4 7
2 4 13 -4 15 1 19 25 18 17 -1 28 -5 26 -9 -3 -5 1 -8 8 -8 7 -1 2 -8 -12 -16
-14 -8 -17 -13 -7 -10 10 3 26 0 37 -6 14 -9 25 -9 45 0 15 7 31 9 36 6 6 -3
10 0 8 7 -4 34 1 41 17 25 18 -18 24 -19 44 -6 13 8 12 10 -2 10 -10 0 -18 4
-18 9 0 5 10 7 21 4 14 -4 26 0 35 11 7 10 16 16 21 15 4 -2 10 8 13 22 3 13
12 24 20 24 8 -1 27 7 42 18 22 14 26 22 19 36 -7 13 -6 18 4 18 7 0 11 -7 8
-16 -3 -9 13 3 35 25 23 23 43 39 46 37 3 -3 8 2 12 11 3 9 11 16 18 16 6 0
-5 -15 -24 -33z m1097 12 c2 -28 33 -49 61 -42 13 3 22 1 22 -7 0 -6 -5 -8
-12 -4 -9 5 -9 2 1 -9 7 -9 10 -17 6 -17 -4 0 4 -9 18 -20 14 -11 35 -20 46
-20 14 0 21 -6 21 -18 0 -28 46 -62 83 -62 24 0 28 -3 17 -10 -13 -8 -13 -11
-1 -22 10 -10 12 -10 7 -1 -5 9 1 12 18 11 19 -2 22 -5 14 -15 -8 -10 -4 -13
16 -14 82 -4 114 0 132 19 10 9 20 16 23 16 3 -1 5 3 3 8 -2 6 4 8 12 5 15 -6
60 35 49 46 -3 4 -1 7 5 7 6 0 12 10 14 23 2 12 6 17 10 12 13 -20 -26 -78
-71 -107 -85 -53 -160 -59 -239 -19 -52 27 -279 226 -279 245 0 24 23 19 24
-5z m-1682 -54 c0 -25 -2 -45 -6 -45 -3 0 -7 23 -8 52 -1 28 2 49 6 45 3 -4 7
-28 8 -52z m921 -124 c-1 -93 -5 -173 -9 -177 -4 -4 -7 69 -7 163 0 144 3 183
15 183 1 0 1 -76 1 -169z m4 -206 c0 -8 -2 -15 -4 -15 -2 0 -6 7 -10 15 -3 8
-1 15 4 15 6 0 10 -7 10 -15z m17 -37 c-3 -8 -6 -5 -6 6 -1 11 2 17 5 13 3 -3
4 -12 1 -19z m-18 -56 c0 -58 12 -122 24 -122 2 0 2 11 -1 25 -2 14 0 25 6 25
5 0 9 -15 9 -33 -1 -38 10 -60 25 -51 6 4 8 2 5 -3 -8 -13 40 -46 53 -38 6 3
10 2 10 -3 0 -10 161 -9 178 2 7 4 12 4 12 1 0 -13 -72 -35 -118 -35 -64 0
-142 39 -176 88 -29 43 -51 138 -41 183 10 45 14 35 14 -39z"/>
<path d="M4570 8116 c0 -2 8 -10 18 -17 15 -13 16 -12 3 4 -13 16 -21 21 -21
13z"/>
<path d="M4665 8030 c10 -11 20 -20 23 -20 3 0 -3 9 -13 20 -10 11 -20 20 -23
20 -3 0 3 -9 13 -20z"/>
<path d="M5936 8342 c-3 -5 1 -9 9 -9 8 0 15 4 15 9 0 4 -4 8 -9 8 -6 0 -12
-4 -15 -8z"/>
<path d="M4150 7911 c0 -5 7 -11 15 -15 8 -3 15 -1 15 3 0 5 -7 11 -15 15 -8
3 -15 1 -15 -3z"/>
<path d="M4520 7576 c0 -2 8 -10 18 -17 15 -13 16 -12 3 4 -13 16 -21 21 -21
13z"/>
<path d="M4616 7478 c3 -5 10 -6 15 -3 13 9 11 12 -6 12 -8 0 -12 -4 -9 -9z"/>
<path d="M4846 6031 c-4 -5 -2 -12 3 -15 5 -4 12 -2 15 3 4 5 2 12 -3 15 -5 4
-12 2 -15 -3z"/>
<path d="M4680 5940 c-8 -5 -10 -10 -5 -10 6 0 17 5 25 10 8 5 11 10 5 10 -5
0 -17 -5 -25 -10z"/>
<path d="M3851 6037 c2 -1 13 -9 24 -17 19 -14 19 -14 6 3 -7 9 -18 17 -24 17
-6 0 -8 -1 -6 -3z"/>
<path d="M8258 6023 c7 -3 16 -2 19 1 4 3 -2 6 -13 5 -11 0 -14 -3 -6 -6z"/>
<path d="M8410 5829 c0 -11 5 -17 10 -14 6 3 10 13 10 21 0 8 -4 14 -10 14 -5
0 -10 -9 -10 -21z"/>
<path d="M8411 5784 c0 -11 3 -14 6 -6 3 7 2 16 -1 19 -3 4 -6 -2 -5 -13z"/>
<path d="M7568 5823 c7 -3 16 -2 19 1 4 3 -2 6 -13 5 -11 0 -14 -3 -6 -6z"/>
<path d="M8020 5663 c8 -3 23 -10 34 -15 13 -7 17 -7 14 3 -2 7 -17 14 -34 15
-16 2 -22 0 -14 -3z"/>
<path d="M6730 4436 c0 -2 7 -7 16 -10 8 -3 12 -2 9 4 -6 10 -25 14 -25 6z"/>
<path d="M6332 4221 c-11 -7 -11 -9 1 -14 9 -3 18 1 21 9 6 16 -2 18 -22 5z"/>
<path d="M3660 4070 c-9 -6 -10 -10 -3 -10 6 0 15 5 18 10 8 12 4 12 -15 0z"/>
<path d="M2451 3871 c-8 -5 -9 -11 -3 -15 5 -3 12 1 16 9 6 17 6 18 -13 6z"/>
<path d="M8223 3183 c9 -2 23 -2 30 0 6 3 -1 5 -18 5 -16 0 -22 -2 -12 -5z"/>
<path d="M4616 2742 c-3 -5 1 -9 9 -9 8 0 12 4 9 9 -3 4 -7 8 -9 8 -2 0 -6 -4
-9 -8z"/>
<path d="M4439 2583 c-13 -16 -12 -17 4 -4 16 13 21 21 13 21 -2 0 -10 -8 -17
-17z"/>
<path d="M5850 2522 c0 -4 10 -13 23 -21 22 -14 22 -14 3 8 -20 22 -26 25 -26
13z"/>
</g>
</svg>
