<?xml version="1.0" standalone="no"?>
<!DOCTYPE svg PUBLIC "-//W3C//DTD SVG 20010904//EN"
 "http://www.w3.org/TR/2001/REC-SVG-20010904/DTD/svg10.dtd">
<svg version="1.0" xmlns="http://www.w3.org/2000/svg"
 width="512.000000pt" height="512.000000pt" viewBox="0 0 512.000000 512.000000"
 preserveAspectRatio="xMidYMid meet">

<g transform="translate(0.000000,512.000000) scale(0.100000,-0.100000)"
fill="#ff0000" stroke="none">
<path d="M1085 3304 c-141 -23 -247 -74 -330 -158 -102 -102 -140 -215 -117
-347 35 -203 161 -307 465 -384 201 -50 277 -99 277 -178 0 -75 -61 -118 -174
-125 -146 -9 -257 35 -366 146 l-77 78 -99 -113 c-54 -63 -100 -117 -102 -122
-1 -4 33 -42 77 -83 145 -136 299 -193 526 -192 200 0 334 45 439 147 65 65
102 139 118 239 41 269 -121 434 -509 517 -153 33 -233 87 -233 157 0 116 204
164 364 85 36 -17 85 -51 109 -75 l45 -43 101 101 c56 56 101 107 101 114 0 7
-29 41 -63 76 -69 69 -153 116 -251 141 -62 15 -248 27 -301 19z"/>
<path d="M3320 3125 l0 -155 215 0 215 0 0 -560 0 -560 175 0 175 0 0 560 0
560 215 0 215 0 0 155 0 155 -605 0 -605 0 0 -155z"/>
<path d="M1990 2556 l0 -716 165 0 165 0 0 250 0 250 93 0 92 0 139 -250 139
-250 193 0 c107 0 194 2 194 4 0 4 -166 294 -287 502 l-23 42 50 32 c187 120
261 379 166 585 -29 63 -112 156 -172 191 -22 13 -67 34 -100 46 -56 21 -77
22 -436 26 l-378 3 0 -715z m685 405 c73 -33 105 -86 105 -170 0 -66 -34 -130
-85 -158 -37 -21 -53 -23 -207 -23 l-168 0 0 185 0 185 158 0 c131 0 164 -3
197 -19z"/>
</g>
</svg>
